<svg width="38" height="29" viewBox="0 0 38 29" fill="none" xmlns="http://www.w3.org/2000/svg">
<path d="M33.8618 20.7554V26.1171C33.8618 27.4331 32.7949 28.5001 31.4788 28.5001H2.88296C1.5669 28.5001 0.5 27.4331 0.5 26.1171V9.43619C0.5 8.12013 1.5669 7.05322 2.88296 7.05322H31.4788C32.7949 7.05322 33.8618 8.12013 33.8618 9.43619V18.3724" stroke="#0FBC91" stroke-miterlimit="10" stroke-linecap="round" stroke-linejoin="round"/>
<path d="M2.83582 4.67013C3.22668 4.1973 3.78535 3.89407 4.3948 3.82396L32.7987 0.51622C34.1059 0.363996 35.2891 1.30027 35.4413 2.60758L37.3709 19.1765C37.5231 20.4837 36.5868 21.6669 35.2795 21.8191L33.8619 21.9842M4.07446 21.351H8.84047M4.07446 24.3298H15.9894M11.2234 21.351H15.9894M18.3724 21.351H23.1383M25.5214 21.351H30.2873M6.45743 15.9893H7.64895M8.84047 18.3723H5.26598C4.60795 18.3723 4.07446 17.8389 4.07446 17.1808V14.7978C4.07446 14.1398 4.60788 13.6063 5.26598 13.6063H8.84047C9.4985 13.6063 10.032 14.1397 10.032 14.7978V17.1808C10.0319 17.8389 9.4985 18.3723 8.84047 18.3723Z" stroke="#0FBC91" stroke-miterlimit="10" stroke-linecap="round" stroke-linejoin="round"/>
<path d="M28.4624 16.5849C28.8642 15.7772 29.0958 14.8689 29.0958 13.904C29.0958 12.9392 28.8642 12.0307 28.4624 11.2231M26.3259 15.5091C26.5676 15.0248 26.7129 14.4832 26.7129 13.904C26.7129 13.3249 26.5676 12.7832 26.3259 12.299M24.1979 14.4375C24.2797 14.2768 24.3298 14.0973 24.3298 13.904C24.3298 13.7107 24.2797 13.5312 24.1979 13.3705" stroke="#0FBC91" stroke-miterlimit="10" stroke-linecap="round" stroke-linejoin="round"/>
</svg>
