<svg width="30" height="28" viewBox="0 0 30 28" fill="none" xmlns="http://www.w3.org/2000/svg">
<path d="M10.4245 8.61038H6.747C6.39221 8.61038 6.10437 8.89883 6.10437 9.25301V12.9372C6.10437 13.292 6.39282 13.5798 6.747 13.5798H10.4245C10.7786 13.5798 11.0671 13.2913 11.0671 12.9372V9.25301C11.0677 8.89883 10.7792 8.61038 10.4245 8.61038ZM10.3374 12.8495H6.83524V9.34003H10.3374V12.8495ZM7.49004 11.4803C7.34763 11.3379 7.34763 11.1066 7.49064 10.9636C7.5246 10.9297 7.56491 10.9029 7.60925 10.8846C7.6536 10.8662 7.70112 10.8569 7.7491 10.8569C7.79708 10.857 7.84458 10.8665 7.88888 10.8849C7.93318 10.9033 7.97342 10.9303 8.0073 10.9642L8.22273 11.1803L9.16598 10.2352C9.30838 10.0922 9.53963 10.0922 9.68264 10.2346C9.75112 10.3031 9.78964 10.3959 9.78976 10.4928C9.78987 10.5897 9.75157 10.6826 9.68325 10.7513L8.48136 11.955C8.4126 12.0237 8.3201 12.0621 8.22273 12.0621C8.12536 12.0621 8.03286 12.0237 7.9641 11.955L7.49004 11.4803ZM16.4382 24.9676C16.4382 25.169 16.2745 25.3327 16.073 25.3327H13.3199C13.1185 25.3327 12.9548 25.169 12.9548 24.9676C12.9548 24.7662 13.1185 24.6025 13.3199 24.6025H16.073C16.2751 24.6025 16.4382 24.7662 16.4382 24.9676ZM17.6979 22.7884C17.6979 22.9898 17.5342 23.1535 17.3327 23.1535H13.3199C13.1185 23.1535 12.9548 22.9898 12.9548 22.7884C12.9548 22.5869 13.1185 22.4232 13.3199 22.4232H17.3327C17.5342 22.4232 17.6979 22.5869 17.6979 22.7884ZM10.4245 14.7975H6.747C6.39221 14.7975 6.10437 15.086 6.10437 15.4401V19.1243C6.10437 19.4785 6.39282 19.7669 6.747 19.7669H10.4245C10.7786 19.7669 11.0671 19.4785 11.0671 19.1243V15.4401C11.0677 15.086 10.7792 14.7975 10.4245 14.7975ZM10.3374 19.0373H6.83524V15.5284H10.3374V19.0373ZM12.9548 16.7662C12.9548 16.5647 13.1185 16.401 13.3199 16.401H18.3916C18.593 16.401 18.7567 16.5647 18.7567 16.7662C18.7567 16.9676 18.593 17.1313 18.3916 17.1313H13.3199C13.1179 17.1313 12.9548 16.9676 12.9548 16.7662ZM10.4245 20.9852H6.747C6.39221 20.9852 6.10437 21.2737 6.10437 21.6279V25.312C6.10437 25.6668 6.39282 25.9547 6.747 25.9547H10.4245C10.7786 25.9547 11.0671 25.6662 11.0671 25.312V21.6279C11.0677 21.2737 10.7792 20.9852 10.4245 20.9852ZM10.3374 25.2244H6.83524V21.7149H10.3374V25.2244ZM12.9548 18.9454C12.9548 18.744 13.1185 18.5803 13.3199 18.5803H16.073C16.2745 18.5803 16.4382 18.744 16.4382 18.9454C16.4382 19.1468 16.2745 19.3105 16.073 19.3105H13.3199C13.1179 19.3105 12.9548 19.1468 12.9548 18.9454ZM12.9548 12.6633C12.9548 12.4619 13.1185 12.2982 13.3199 12.2982H19.8089C20.0103 12.2982 20.174 12.4619 20.174 12.6633C20.174 12.8647 20.0103 13.0285 19.8089 13.0285H13.3199C13.1179 13.0285 12.9548 12.8647 12.9548 12.6633ZM12.9548 10.4841C12.9548 10.2827 13.1185 10.119 13.3199 10.119H19.8089C20.0103 10.119 20.174 10.2827 20.174 10.4841C20.174 10.6855 20.0103 10.8492 19.8089 10.8492H13.3199C13.1179 10.8492 12.9548 10.6855 12.9548 10.4841ZM28.8794 19.7219L23.7961 15.4493C23.6513 15.3276 23.4846 15.2466 23.3111 15.2052V3.33729C23.3111 3.13586 23.1474 2.97216 22.946 2.97216H20.3432V0.36513C20.3432 0.1637 20.1795 0 19.9781 0H0.36513C0.1637 0 0 0.1637 0 0.36513V24.6621C0 24.8635 0.1637 25.0272 0.36513 25.0272H2.9679V27.6349C2.9679 27.8363 3.1316 28 3.33303 28H26.6253C27.1906 28 27.6507 27.5393 27.6507 26.9734V21.8999C27.7809 21.9443 27.9185 21.9681 28.0596 21.9681C28.0974 21.9681 28.1351 21.9662 28.1734 21.9632C28.5124 21.9334 28.8191 21.7739 29.037 21.5141C29.4861 20.9767 29.4161 20.1728 28.8794 19.7219ZM0.73026 24.297V0.73026H19.613V2.97216H7.13038V2.97338C7.03545 2.97338 6.94173 3.00989 6.87175 3.07987L3.0744 6.88331C3.04062 6.91722 3.01388 6.95748 2.9957 7.00176C2.97753 7.04604 2.96829 7.09347 2.96851 7.14134H2.9679V24.2976H0.73026V24.297ZM6.76525 4.21969V6.7756H4.2136L6.76525 4.21969ZM3.69816 7.50586H7.13038C7.33181 7.50586 7.49551 7.34216 7.49551 7.14073V3.70242H22.5809V15.2703C22.4944 15.3081 22.4111 15.3562 22.3332 15.4158L17.0583 19.4487C16.5014 19.874 16.3943 20.6743 16.8191 21.2317C17.0248 21.5013 17.3236 21.6747 17.6607 21.7198C17.8597 21.7465 18.0569 21.7252 18.2413 21.6626V26.9734C18.2413 27.0762 18.2571 27.1754 18.2851 27.2697H3.69816V7.50586ZM23.7633 27.2691H22.1281V23.9331H23.7633V27.2691ZM26.6253 27.2691H24.4941V23.5679C24.4941 23.3665 24.3304 23.2028 24.129 23.2028H21.7636C21.5621 23.2028 21.3984 23.3665 21.3984 23.5679V27.2691H19.2667C19.1042 27.2691 18.9716 27.1365 18.9716 26.9728V21.1873L22.7233 18.3192C22.8906 18.1914 23.1115 18.1963 23.2728 18.332L26.9204 21.3978V26.9728C26.9204 27.1365 26.7878 27.2691 26.6253 27.2691ZM28.4765 21.0449C28.384 21.155 28.2538 21.2226 28.1095 21.2354C27.9653 21.2481 27.8253 21.2043 27.7152 21.1118L23.7426 17.7733C23.5241 17.5895 23.2576 17.497 22.9904 17.497C22.7409 17.497 22.4914 17.5774 22.2796 17.7392L18.1579 20.8909C18.0441 20.9779 17.9023 21.0151 17.7587 20.9962C17.6884 20.987 17.6206 20.964 17.5591 20.9285C17.4977 20.8929 17.444 20.8456 17.4009 20.7893C17.2195 20.5513 17.2652 20.2106 17.5025 20.0292L22.7774 15.9963C22.9448 15.8686 23.1657 15.8734 23.3269 16.0091L28.4102 20.2818C28.6384 20.4728 28.6682 20.8161 28.4765 21.0449ZM7.49004 17.6674C7.34763 17.525 7.34763 17.2938 7.49064 17.1508C7.52454 17.1169 7.56479 17.09 7.60909 17.0717C7.65339 17.0534 7.70086 17.044 7.7488 17.044C7.79673 17.0441 7.84418 17.0536 7.88844 17.072C7.93269 17.0904 7.97288 17.1174 8.00669 17.1514L8.22212 17.3674L9.16537 16.4229C9.30777 16.2799 9.53902 16.2799 9.68203 16.4223C9.82504 16.5647 9.82504 16.796 9.68264 16.939L8.48075 18.1427C8.41199 18.2115 8.31949 18.2498 8.22212 18.2498C8.12475 18.2498 8.03225 18.2115 7.96349 18.1427L7.49004 17.6674ZM7.49004 23.8552C7.34763 23.7128 7.34763 23.4815 7.49064 23.3385C7.5246 23.3046 7.56491 23.2777 7.60925 23.2594C7.6536 23.2411 7.70112 23.2317 7.7491 23.2318C7.79708 23.2318 7.84458 23.2413 7.88888 23.2598C7.93318 23.2782 7.97342 23.3051 8.0073 23.3391L8.22273 23.5551L9.16598 22.6107C9.30838 22.4677 9.53963 22.4677 9.68264 22.6101C9.82565 22.7525 9.82565 22.9837 9.68325 23.1267L8.48136 24.3304C8.4474 24.3644 8.40708 24.3914 8.3627 24.4097C8.31833 24.4281 8.27076 24.4376 8.22273 24.4376C8.1747 24.4376 8.12713 24.4281 8.08276 24.4097C8.03838 24.3914 7.99806 24.3644 7.9641 24.3304L7.49004 23.8552Z" fill="#0FBC91"/>
</svg>
