<svg width="16" height="16" viewBox="0 0 16 16" fill="none" xmlns="http://www.w3.org/2000/svg">
<path d="M14.6666 14.1667C14.6666 14.44 14.44 14.6667 14.1666 14.6667H1.83331C1.55998 14.6667 1.33331 14.44 1.33331 14.1667C1.33331 13.8934 1.55998 13.6667 1.83331 13.6667H14.1666C14.44 13.6667 14.6666 13.8934 14.6666 14.1667Z" fill="#D0D5DD"/>
<path d="M10.26 3.01336L3.1 10.1734C2.82667 10.4467 2.38667 10.4467 2.12 10.1734H2.11333C1.18667 9.24003 1.18667 7.73336 2.11333 6.80669L6.88 2.04003C7.81333 1.10669 9.32 1.10669 10.2533 2.04003C10.5267 2.30003 10.5267 2.74669 10.26 3.01336Z" fill="#0FBC91"/>
<path d="M13.88 5.66002L11.8466 3.62669C11.5733 3.35336 11.1333 3.35336 10.8666 3.62669L3.70665 10.7867C3.43331 11.0534 3.43331 11.4934 3.70665 11.7667L5.73998 13.8067C6.67331 14.7334 8.17998 14.7334 9.11331 13.8067L13.8733 9.04003C14.82 8.10669 14.82 6.59336 13.88 5.66002ZM8.50665 11.68L7.69998 12.4934C7.53331 12.66 7.25998 12.66 7.08665 12.4934C6.91998 12.3267 6.91998 12.0534 7.08665 11.88L7.89998 11.0667C8.05998 10.9067 8.33998 10.9067 8.50665 11.0667C8.67331 11.2334 8.67331 11.52 8.50665 11.68ZM11.1533 9.03336L9.52665 10.6667C9.35998 10.8267 9.08665 10.8267 8.91331 10.6667C8.74665 10.5 8.74665 10.2267 8.91331 10.0534L10.5466 8.42002C10.7066 8.26002 10.9866 8.26002 11.1533 8.42002C11.32 8.59336 11.32 8.86669 11.1533 9.03336Z" fill="#0FBC91"/>
</svg>
