<svg width="12" height="12" viewBox="0 0 12 12" fill="none" xmlns="http://www.w3.org/2000/svg">
<path d="M5.83333 0C2.61917 0 0 2.61917 0 5.83333C0 9.0475 2.61917 11.6667 5.83333 11.6667C9.0475 11.6667 11.6667 9.0475 11.6667 5.83333C11.6667 2.61917 9.0475 0 5.83333 0ZM8.62167 4.49167L5.31417 7.79917C5.2325 7.88083 5.12167 7.9275 5.005 7.9275C4.88833 7.9275 4.7775 7.88083 4.69583 7.79917L3.045 6.14833C2.87583 5.97917 2.87583 5.69917 3.045 5.53C3.21417 5.36083 3.49417 5.36083 3.66333 5.53L5.005 6.87167L8.00333 3.87333C8.1725 3.70417 8.4525 3.70417 8.62167 3.87333C8.79083 4.0425 8.79083 4.31667 8.62167 4.49167Z" fill="#8E8E93"/>
</svg>
