<svg width="6" height="8" viewBox="0 0 6 8" fill="none" xmlns="http://www.w3.org/2000/svg">
<path d="M5.25 3H5V2C5 0.897 4.103 0 3 0C1.897 0 1 0.897 1 2V3H0.75C0.551169 3.00026 0.360557 3.07937 0.219962 3.21996C0.0793672 3.36056 0.000264579 3.55117 0 3.75V7.25C0 7.66367 0.336667 8 0.75 8H5.25C5.66333 8 6 7.66367 6 7.25V3.75C6 3.33633 5.66333 3 5.25 3ZM1.66667 2C1.66667 1.26467 2.26467 0.666667 3 0.666667C3.73533 0.666667 4.33333 1.26467 4.33333 2V3H1.66667V2ZM3.33333 5.574V6.33333C3.33333 6.42174 3.29821 6.50652 3.2357 6.56904C3.17319 6.63155 3.08841 6.66667 3 6.66667C2.91159 6.66667 2.82681 6.63155 2.7643 6.56904C2.70179 6.50652 2.66667 6.42174 2.66667 6.33333V5.574C2.46833 5.45833 2.33333 5.24567 2.33333 5C2.33333 4.63233 2.63233 4.33333 3 4.33333C3.36767 4.33333 3.66667 4.63233 3.66667 5C3.66667 5.24567 3.53167 5.45833 3.33333 5.574Z" fill="#F9FAFB"/>
</svg>
