<svg width="80" height="80" viewBox="0 0 80 80" fill="none" xmlns="http://www.w3.org/2000/svg">
<path d="M77.5828 20.2906C75.4828 12.5609 67.4437 4.52031 59.7125 2.42031C54.9719 1.23906 48.6219 0.021875 40 0C31.3813 0.021875 25.0312 1.23906 20.2906 2.42031C12.5609 4.52031 4.52031 12.5594 2.42031 20.2906C1.23906 25.0297 0.021875 31.3813 0 40C0.021875 48.6203 1.23906 54.9703 2.42031 59.7109C4.52031 67.4422 12.5609 75.4812 20.2906 77.5812C25.0312 78.7625 31.3844 79.9797 40.0016 80C48.6203 79.9797 54.9719 78.7625 59.7125 77.5812C67.4437 75.4812 75.4828 67.4422 77.5828 59.7109C78.7641 54.9703 79.9813 48.6172 80.0016 40C79.9813 31.3813 78.7641 25.0312 77.5828 20.2906Z" fill="#FFE5E5"/>
<path d="M40.002 13.4238C34.7459 13.4238 29.6079 14.9825 25.2376 17.9026C20.8673 20.8228 17.4611 24.9733 15.4498 29.8294C13.4384 34.6854 12.9122 40.0288 13.9378 45.1839C14.9633 50.339 17.4945 55.0742 21.2112 58.7907C24.9279 62.5073 29.6633 65.0382 34.8185 66.0634C39.9736 67.0886 45.317 66.5621 50.1729 64.5505C55.0289 62.5388 59.1792 59.1324 62.0991 54.762C65.019 50.3915 66.5774 45.2534 66.5771 39.9973C66.5766 32.9494 63.7766 26.1904 58.7929 21.2069C53.8091 16.2235 47.0499 13.4238 40.002 13.4238Z" fill="url(#paint0_linear_237_1293)"/>
<path d="M44.1654 40.0016L50.9716 33.1969C51.5232 32.6444 51.833 31.8956 51.833 31.1148C51.833 30.3341 51.5232 29.5853 50.9716 29.0328C50.4191 28.4812 49.6703 28.1714 48.8896 28.1714C48.1089 28.1714 47.3601 28.4812 46.8076 29.0328L40.0013 35.8391L33.1966 29.0328C32.6444 28.4806 31.8955 28.1704 31.1146 28.1704C30.3337 28.1704 29.5848 28.4806 29.0326 29.0328C28.4804 29.585 28.1702 30.3339 28.1702 31.1148C28.1702 31.8958 28.4804 32.6447 29.0326 33.1969L35.8388 40.0016L29.0326 46.8078C28.4811 47.3601 28.1713 48.1086 28.1713 48.8891C28.1713 49.6695 28.4811 50.4181 29.0326 50.9703C29.3059 51.2438 29.6305 51.4608 29.9878 51.6088C30.345 51.7568 30.7279 51.833 31.1146 51.833C31.5013 51.833 31.8842 51.7568 32.2414 51.6088C32.5987 51.4608 32.9233 51.2438 33.1966 50.9703L40.0013 44.1656L46.806 50.9703C47.358 51.5225 48.1067 51.8328 48.8875 51.833C49.6683 51.8331 50.4171 51.5231 50.9693 50.9711C51.5215 50.4191 51.8318 49.6704 51.8319 48.8896C51.8321 48.1089 51.5221 47.36 50.9701 46.8078L44.1654 40.0016Z" fill="url(#paint1_linear_237_1293)"/>
<defs>
<linearGradient id="paint0_linear_237_1293" x1="58.7942" y1="58.7895" x2="21.2114" y2="21.2066" gradientUnits="userSpaceOnUse">
<stop stop-color="#EF3739"/>
<stop offset="0.54" stop-color="#EF3739"/>
<stop offset="1" stop-color="#FF8C8B"/>
</linearGradient>
<linearGradient id="paint1_linear_237_1293" x1="50.9717" y1="50.9703" x2="29.0326" y2="29.0328" gradientUnits="userSpaceOnUse">
<stop stop-color="#FFD2D2"/>
<stop offset="0.57" stop-color="white"/>
<stop offset="1" stop-color="white"/>
</linearGradient>
</defs>
</svg>
