<svg width="390" height="239" viewBox="0 0 390 239" fill="none" xmlns="http://www.w3.org/2000/svg">
<path d="M78.225 111.519C78.2734 111.85 78.222 112.189 78.0772 112.492C77.9325 112.794 77.7009 113.047 77.4122 113.218C77.1234 113.388 76.7904 113.469 76.4556 113.45C76.1207 113.43 75.7992 113.312 75.5318 113.11C75.2645 112.907 75.0635 112.63 74.9543 112.312C74.8451 111.995 74.8329 111.653 74.9189 111.329C75.0049 111.005 75.1854 110.713 75.4375 110.492C75.6896 110.271 76.0017 110.13 76.3343 110.086C76.7738 110.033 77.2168 110.152 77.5697 110.42C77.9226 110.687 78.1576 111.081 78.225 111.519Z" fill="#0FBC91"/>
<path d="M30.7138 188.365C30.7622 188.697 30.7106 189.036 30.5659 189.339C30.4211 189.641 30.1897 189.894 29.9009 190.064C29.6122 190.235 29.2792 190.316 28.9443 190.297C28.6095 190.277 28.2879 190.159 28.0206 189.956C27.7533 189.754 27.5522 189.476 27.4431 189.159C27.3339 188.842 27.3216 188.5 27.4077 188.176C27.4937 187.851 27.6742 187.56 27.9263 187.339C28.1783 187.118 28.4905 186.976 28.8231 186.933C29.2632 186.876 29.7081 186.994 30.0619 187.262C30.4156 187.53 30.6498 187.926 30.7138 188.365Z" fill="#9FFFE7"/>
<path d="M75.4301 130.068L70.7033 128.292C70.7033 128.292 72.1357 131.658 68.8699 135.712C65.6041 139.765 60.8056 138.576 59.3159 143.446L64.3579 145.695C64.6774 144.353 65.2745 143.092 66.1109 141.994C66.9472 140.896 68.0041 139.986 69.2137 139.321C72.2216 137.875 75.4588 135.912 75.4301 130.068Z" fill="#9FFFE7"/>
<path d="M35.7996 4.13385L36.4871 -0.865118C36.4871 -0.865118 33.5365 1.31208 28.8383 -1.00836C24.1401 -3.32881 24.2834 -8.24184 19.1841 -8.61426L18.1099 -3.19989C19.4901 -3.18745 20.8522 -2.8852 22.1082 -2.31275C23.3641 -1.74029 24.4858 -0.910397 25.4006 0.1232C27.5348 2.73012 30.1704 5.45163 35.7996 4.13385Z" fill="#9FFFE7"/>
<path d="M42.6884 122.19L37.3742 119.325C37.3742 119.325 33.0772 125.814 38.2481 129.08C38.2481 129.065 37.231 124.854 42.6884 122.19Z" fill="#475467"/>
<path d="M38.3883 136.972L43.9746 134.895C43.9746 134.895 44.3041 130.097 38.2451 129.065C38.2451 129.065 42.0409 133.406 38.3883 136.972Z" fill="#475467"/>
<path d="M89.0687 33.2111C88.9725 32.548 89.0755 31.8712 89.3647 31.2667C89.6539 30.6623 90.1162 30.1574 90.6929 29.8162C91.2697 29.475 91.9347 29.3129 92.6038 29.3505C93.2728 29.3882 93.9156 29.6237 94.4505 30.0274C94.9853 30.4311 95.3882 30.9846 95.6078 31.6177C95.8274 32.2507 95.8539 32.9348 95.6839 33.583C95.514 34.2312 95.1552 34.8142 94.6532 35.2581C94.1512 35.7019 93.5287 35.9866 92.8646 36.0759C91.9821 36.1945 91.0885 35.9602 90.3778 35.4238C89.6671 34.8874 89.1966 34.0923 89.0687 33.2111Z" fill="#9FFFE7"/>
<path d="M40.7388 63.305L40.0942 68.304C40.0942 68.304 43.045 66.1268 47.7431 68.4473C52.4413 70.7677 52.2981 75.6807 57.3973 76.0532L58.4716 70.6388C57.0908 70.6219 55.7288 70.3162 54.4731 69.7414C53.2175 69.1667 52.096 68.3355 51.1808 67.3014C49.0609 64.7088 46.4253 61.9729 40.7388 63.305Z" fill="#475467"/>
<path d="M325.372 69.8513C325.468 70.5144 325.365 71.1912 325.076 71.7957C324.787 72.4002 324.324 72.905 323.748 73.2462C323.171 73.5874 322.506 73.7495 321.837 73.7119C321.168 73.6743 320.525 73.4387 319.99 73.035C319.455 72.6313 319.052 72.0778 318.833 71.4447C318.613 70.8117 318.587 70.1276 318.757 69.4794C318.926 68.8312 319.285 68.2482 319.787 67.8043C320.289 67.3605 320.912 67.0758 321.576 66.9865C322.459 66.864 323.355 67.0968 324.066 67.6339C324.778 68.171 325.247 68.9684 325.372 69.8513Z" fill="#475467"/>
<path d="M258.109 112.163C258.158 112.495 258.106 112.834 257.961 113.137C257.817 113.439 257.585 113.692 257.296 113.862C257.008 114.033 256.675 114.114 256.34 114.094C256.005 114.075 255.683 113.957 255.416 113.754C255.149 113.552 254.948 113.274 254.839 112.957C254.729 112.64 254.717 112.298 254.803 111.973C254.889 111.649 255.07 111.358 255.322 111.137C255.574 110.915 255.886 110.774 256.219 110.731C256.659 110.674 257.104 110.792 257.457 111.06C257.811 111.328 258.045 111.724 258.109 112.163Z" fill="#475467"/>
<path d="M297.499 201.372C297.547 201.704 297.496 202.042 297.351 202.345C297.206 202.647 296.975 202.9 296.686 203.071C296.397 203.241 296.064 203.322 295.73 203.303C295.395 203.284 295.073 203.165 294.806 202.963C294.538 202.76 294.337 202.483 294.228 202.165C294.119 201.848 294.107 201.506 294.193 201.182C294.279 200.858 294.459 200.566 294.711 200.345C294.963 200.124 295.276 199.983 295.608 199.939C296.048 199.886 296.491 200.005 296.844 200.273C297.196 200.54 297.432 200.934 297.499 201.372Z" fill="#0FBC91"/>
<path d="M183.669 118.967C183.717 119.298 183.666 119.636 183.521 119.938C183.377 120.24 183.146 120.493 182.858 120.663C182.57 120.834 182.238 120.915 181.904 120.897C181.569 120.878 181.248 120.761 180.981 120.56C180.713 120.359 180.511 120.083 180.401 119.767C180.29 119.451 180.276 119.109 180.36 118.785C180.444 118.461 180.622 118.169 180.872 117.947C181.122 117.724 181.433 117.581 181.764 117.535C182.206 117.477 182.653 117.595 183.009 117.863C183.365 118.13 183.602 118.527 183.669 118.967Z" fill="#0FBC91"/>
<path d="M320.847 174.156L325.631 172.567C325.631 172.567 322.366 170.876 322.366 165.648C322.366 160.42 326.849 158.357 324.915 153.616L319.587 155.049C320.183 156.293 320.513 157.647 320.555 159.026C320.597 160.405 320.35 161.778 319.83 163.056C318.427 166.078 317.137 169.644 320.847 174.156Z" fill="#475467"/>
<path d="M372.483 124.338L373.17 119.339C373.17 119.339 370.22 121.517 365.521 119.196C360.823 116.876 360.966 111.948 355.867 111.59L354.793 116.99C356.174 117.007 357.536 117.313 358.791 117.888C360.047 118.463 361.169 119.294 362.084 120.328C364.161 122.935 366.796 125.599 372.483 124.338Z" fill="#0FBC91"/>
<path d="M359.849 47.9933L367.913 45.7158C367.913 45.7158 371.737 55.7424 363.759 58.6072C363.759 58.6072 366.481 53.2501 359.849 47.9933Z" fill="#9FFFE7"/>
<path d="M361.183 69.2352L354.265 64.7375C354.265 64.7375 355.282 58.1629 363.761 58.607C363.761 58.607 357.316 63.3195 361.183 69.2352Z" fill="#9FFFE7"/>
<path d="M292.844 108.411L287.587 105.546C287.587 105.546 283.29 112.035 288.461 115.3C288.404 115.229 287.344 111.018 292.844 108.411Z" fill="#9FFFE7"/>
<path d="M288.547 123.135L294.133 121.058C294.133 121.058 294.463 116.26 288.404 115.229C288.404 115.229 292.2 119.569 288.547 123.135Z" fill="#9FFFE7"/>
<path d="M264.309 187.191L256.259 189.469C256.259 189.469 252.42 179.442 260.399 176.577C260.37 176.534 257.691 181.892 264.309 187.191Z" fill="#0FBC91"/>
<path d="M262.992 165.906L269.91 170.418C269.91 170.418 268.893 176.978 260.4 176.534C260.371 176.534 266.845 171.822 262.992 165.906Z" fill="#0FBC91"/>
<path d="M361.125 236.135L366.439 239C366.439 239 370.736 232.512 365.565 229.231C365.565 229.26 366.639 233.471 361.125 236.135Z" fill="#0FBC91"/>
<path d="M365.419 221.368L359.833 223.445C359.833 223.445 359.518 228.229 365.562 229.26C365.562 229.26 361.767 224.92 365.419 221.368Z" fill="#0FBC91"/>
<path d="M99.1577 75.4661C99.206 75.7979 99.1545 76.1367 99.0098 76.4392C98.865 76.7418 98.6335 76.9944 98.3448 77.165C98.056 77.3356 97.723 77.4164 97.3882 77.3972C97.0534 77.3779 96.7318 77.2595 96.4645 77.057C96.1972 76.8545 95.9961 76.577 95.887 76.2599C95.7778 75.9427 95.7654 75.6003 95.8515 75.2761C95.9375 74.952 96.1181 74.6607 96.3701 74.4395C96.6222 74.2182 96.9343 74.077 97.2669 74.0337C97.707 73.9764 98.152 74.0945 98.5058 74.3625C98.8595 74.6305 99.0937 75.0269 99.1577 75.4661Z" fill="#0FBC91"/>
<path d="M112.622 133.649C112.718 134.312 112.615 134.989 112.326 135.593C112.037 136.198 111.575 136.703 110.998 137.044C110.421 137.385 109.756 137.547 109.087 137.509C108.418 137.472 107.775 137.236 107.241 136.833C106.706 136.429 106.303 135.875 106.083 135.242C105.864 134.609 105.837 133.925 106.007 133.277C106.177 132.629 106.536 132.046 107.038 131.602C107.54 131.158 108.162 130.873 108.826 130.784C109.709 130.665 110.603 130.9 111.313 131.436C112.024 131.973 112.494 132.768 112.622 133.649Z" fill="#475467"/>
<path d="M129.322 63.8781L134.106 62.2882C134.106 62.2882 130.841 60.598 130.841 55.3698C130.841 50.1417 135.324 48.079 133.39 43.3379L128.062 44.7703C128.658 46.0142 128.988 47.3691 129.03 48.748C129.072 50.1269 128.825 51.4993 128.305 52.7772C126.887 55.7995 125.612 59.3661 129.322 63.8781Z" fill="#475467"/>
<path d="M131.101 147.085L126.374 145.309C126.374 145.309 127.806 148.675 124.54 152.728C121.274 156.782 116.476 155.593 114.986 160.463L120.028 162.712C120.349 161.368 120.948 160.106 121.786 159.008C122.625 157.91 123.686 157 124.898 156.338C127.892 154.906 131.129 152.943 131.101 147.085Z" fill="#9FFFE7"/>
<path d="M179.013 2.78717L179.7 -2.2118C179.7 -2.2118 176.749 -0.0346003 172.051 -2.35504C167.353 -4.67549 167.496 -9.60284 162.397 -9.96094L161.323 -4.56089C162.704 -4.54398 164.066 -4.23831 165.321 -3.66353C166.577 -3.08875 167.698 -2.25758 168.614 -1.22346C170.69 1.38346 173.326 4.10495 179.013 2.78717Z" fill="#475467"/>
<path d="M108.312 34.3854C108.216 33.7223 108.319 33.0455 108.608 32.441C108.898 31.8366 109.36 31.3317 109.937 30.9905C110.513 30.6493 111.178 30.4873 111.847 30.5249C112.517 30.5625 113.159 30.7981 113.694 31.2017C114.229 31.6054 114.632 32.1589 114.851 32.792C115.071 33.4251 115.098 34.1091 114.928 34.7573C114.758 35.4055 114.399 35.9885 113.897 36.4324C113.395 36.8762 112.772 37.1609 112.108 37.2502C111.226 37.3688 110.332 37.1345 109.621 36.5981C108.911 36.0617 108.44 35.2666 108.312 34.3854Z" fill="#9FFFE7"/>
</svg>
