<svg width="102" height="102" viewBox="0 0 102 102" fill="none" xmlns="http://www.w3.org/2000/svg">
<g clip-path="url(#clip0_245_9427)">
<path d="M84.7977 84.8085C103.47 66.1366 103.47 35.8634 84.7977 17.1915C66.1258 -1.48048 35.8526 -1.48048 17.1806 17.1915C-1.49133 35.8634 -1.49133 66.1366 17.1806 84.8085C35.8526 103.48 66.1258 103.48 84.7977 84.8085Z" fill="#14EBB6"/>
<path fill-rule="evenodd" clip-rule="evenodd" d="M98.1244 59.1112C94.7224 79.0172 79.0166 94.7222 59.1112 98.1244L33.372 72.3852C27.2127 67.3021 23.2871 59.6097 23.2871 51.0002C23.2871 35.6945 35.6945 23.2871 51.0002 23.2871C59.6097 23.2871 67.3021 27.2129 72.3852 33.372L98.1244 59.1112Z" fill="#0FBC91"/>
<path fill-rule="evenodd" clip-rule="evenodd" d="M38.0283 52.6458L45.9209 59.8938C47.0722 60.9536 48.8542 60.8972 49.937 59.7808L64.0176 46.2995C65.1629 45.1982 65.1976 43.3761 64.0959 42.2302C62.9942 41.0861 61.1731 41.0502 60.0278 42.1515L47.8313 53.8291L41.9274 48.4078C40.7578 47.3316 38.9355 47.4071 37.8588 48.5779C36.7822 49.7475 36.8581 51.5686 38.0283 52.6458ZM51.0002 23.2871C66.306 23.2871 78.7134 35.6945 78.7134 51.0002C78.7134 66.306 66.306 78.7134 51.0002 78.7134C35.6945 78.7134 23.2871 66.306 23.2871 51.0002C23.2871 35.6945 35.6945 23.2871 51.0002 23.2871Z" fill="white"/>
</g>
<defs>
<clipPath id="clip0_245_9427">
<rect width="102" height="102" fill="white"/>
</clipPath>
</defs>
</svg>
