<svg width="28" height="28" viewBox="0 0 28 28" fill="none" xmlns="http://www.w3.org/2000/svg">
<path d="M7.67704 10.8398V10.6673L7.95883 10.8082C7.69128 11.5816 7.61268 12.4078 7.72961 13.2177C7.84654 14.0277 8.15559 14.7979 8.63095 15.4641C9.10631 16.1302 9.73418 16.6729 10.4621 17.0469C11.19 17.4208 11.9969 17.6152 12.8152 17.6136H13.377C14.3811 17.6151 15.3636 17.3219 16.2026 16.7703C17.0417 16.2188 17.7005 15.4332 18.0974 14.5109C18.4943 13.5886 18.6119 12.5701 18.4355 11.5816C18.2592 10.5931 17.7967 9.67807 17.1053 8.94988C17.1706 8.73089 17.178 8.49876 17.1271 8.27603C17.0761 8.05329 16.9685 7.84751 16.8145 7.67865C17.0372 7.43054 17.1604 7.10889 17.1604 6.77547C17.1604 6.44206 17.0372 6.1204 16.8145 5.87229C16.9888 5.67742 17.103 5.43627 17.1433 5.17795C17.1836 4.91963 17.1483 4.65516 17.0417 4.41645C16.935 4.17775 16.7616 3.975 16.5422 3.83267C16.3229 3.69035 16.0671 3.61452 15.8057 3.61434C15.7827 3.61433 15.7597 3.61614 15.737 3.61976L15.1165 3.71504L15.7939 1.01453C15.8161 0.926081 15.811 0.832991 15.7792 0.747509C15.7475 0.662027 15.6906 0.588157 15.6161 0.53562C15.5415 0.483082 15.4529 0.454338 15.3617 0.453169C15.2705 0.452 15.1811 0.478461 15.1053 0.529071L14.1244 1.18162L13.4714 0.202571C13.429 0.138388 13.3709 0.0861081 13.3026 0.0506916C13.2343 0.0152751 13.158 -0.00210397 13.0811 0.000203115C13.0042 0.0025102 12.9292 0.0244269 12.8631 0.0638741C12.7971 0.103321 12.7422 0.158991 12.7037 0.225602L12.0123 1.41238L11.0315 0.949953C10.9541 0.913119 10.8679 0.899039 10.7829 0.909354C10.6978 0.91967 10.6175 0.953957 10.5512 1.00821C10.4849 1.06247 10.4355 1.13446 10.4085 1.21578C10.3816 1.2971 10.3784 1.38439 10.3992 1.46748L10.6575 2.49755L7.67704 3.82252V3.61434C7.67704 3.49457 7.62946 3.3797 7.54477 3.29502C7.46008 3.21033 7.34522 3.16275 7.22545 3.16275H3.61272C3.49296 3.16275 3.37809 3.21033 3.2934 3.29502C3.20871 3.3797 3.16113 3.49457 3.16113 3.61434H0V4.51752H3.16113V9.93661H0V10.8398H3.16113C3.16113 10.9596 3.20871 11.0744 3.2934 11.1591C3.37809 11.2438 3.49296 11.2914 3.61272 11.2914H7.22545C7.34522 11.2914 7.46008 11.2438 7.54477 11.1591C7.62946 11.0744 7.67704 10.9596 7.67704 10.8398ZM17.612 12.4754C17.6107 13.5982 17.1641 14.6747 16.3702 15.4686C15.5762 16.2625 14.4998 16.7092 13.377 16.7105H12.8152C12.151 16.7114 11.4959 16.5558 10.903 16.2564C10.3101 15.957 9.79606 15.5222 9.40251 14.9871C9.00895 14.452 8.74697 13.8318 8.63776 13.1766C8.52856 12.5214 8.57522 11.8498 8.77395 11.216L9.73313 11.6978C9.79602 11.7283 9.86512 11.7437 9.93499 11.743H11.7414C11.7414 12.1023 11.8841 12.4469 12.1382 12.7009C12.3922 12.955 12.7368 13.0977 13.0961 13.0977C13.1854 13.0977 13.2728 13.1242 13.347 13.1738C13.4213 13.2235 13.4792 13.294 13.5133 13.3765C13.5475 13.459 13.5565 13.5498 13.539 13.6374C13.5216 13.725 13.4786 13.8055 13.4155 13.8687C13.3523 13.9318 13.2718 13.9748 13.1842 13.9922C13.0966 14.0097 13.0058 14.0007 12.9233 13.9665C12.8408 13.9324 12.7703 13.8745 12.7206 13.8002C12.671 13.726 12.6445 13.6386 12.6445 13.5493H11.7414C11.7425 13.8285 11.8299 14.1006 11.9916 14.3282C12.1532 14.5558 12.3813 14.7279 12.6445 14.821V15.8073H13.5477V14.821C13.8488 14.715 14.1026 14.5058 14.2642 14.2305C14.4259 13.9553 14.4848 13.6317 14.4308 13.3171C14.3767 13.0026 14.213 12.7173 13.9687 12.5118C13.7244 12.3063 13.4153 12.194 13.0961 12.1946C12.9764 12.1946 12.8615 12.147 12.7768 12.0623C12.6921 11.9776 12.6445 11.8627 12.6445 11.743H14.9025C15.1232 11.7428 15.3406 11.6887 15.5356 11.5854C15.7307 11.4821 15.8976 11.3327 16.0217 11.1502C16.1459 10.9677 16.2236 10.7576 16.248 10.5382C16.2724 10.3188 16.2429 10.0968 16.162 9.89145C16.3087 9.85088 16.4474 9.78584 16.5725 9.69907C17.2409 10.4698 17.6099 11.4552 17.612 12.4754ZM11.9997 2.40588C12.1018 2.45417 12.2184 2.46241 12.3263 2.42896C12.4342 2.39552 12.5257 2.32283 12.5827 2.22524L13.121 1.30445L13.6236 2.05816C13.6565 2.1075 13.6988 2.14988 13.7481 2.18288C13.7974 2.21587 13.8527 2.23883 13.9109 2.25045C13.969 2.26206 14.0289 2.26211 14.0871 2.25058C14.1453 2.23905 14.2006 2.21617 14.2499 2.18325L14.6324 1.9281L14.1488 3.86407L12.0119 4.19283L11.5074 2.17286L11.9997 2.40588ZM7.67704 4.81105L10.8802 3.38854L11.1159 4.33192L9.86635 4.52429L10.0018 5.41664L15.8341 4.51752C15.8934 4.51939 15.9518 4.53292 16.0059 4.55734C16.0599 4.58176 16.1087 4.61659 16.1493 4.65985C16.1899 4.7031 16.2216 4.75393 16.2426 4.80944C16.2635 4.86494 16.2734 4.92403 16.2715 4.98334C16.2696 5.04264 16.2561 5.10099 16.2317 5.15507C16.2072 5.20914 16.1724 5.25788 16.1292 5.29849C16.0859 5.3391 16.0351 5.3708 15.9796 5.39177C15.9241 5.41274 15.865 5.42257 15.8057 5.4207H14.4509V6.32388H15.8057C15.9254 6.32388 16.0403 6.37146 16.125 6.45615C16.2097 6.54084 16.2573 6.6557 16.2573 6.77547C16.2573 6.89524 16.2097 7.01011 16.125 7.0948C16.0403 7.17948 15.9254 7.22706 15.8057 7.22706H14.4509V8.13024H15.8057C15.9254 8.13024 16.0403 8.17782 16.125 8.26251C16.2097 8.3472 16.2573 8.46207 16.2573 8.58183C16.2573 8.7016 16.2097 8.81647 16.125 8.90116C16.0403 8.98585 15.9254 9.03343 15.8057 9.03343H14.4509V9.93661H14.9025C15.0223 9.93661 15.1371 9.98419 15.2218 10.0689C15.3065 10.1536 15.3541 10.2684 15.3541 10.3882C15.3541 10.508 15.3065 10.6228 15.2218 10.7075C15.1371 10.7922 15.0223 10.8398 14.9025 10.8398H10.0416L7.67704 9.65752V4.81105ZM6.77386 10.3882H4.06432V4.06593H6.77386V10.3882ZM27.9986 21.2264V20.3232H25.7407C25.7407 20.2034 25.6931 20.0886 25.6084 20.0039C25.5237 19.9192 25.4088 19.8716 25.2891 19.8716H21.6763C21.5566 19.8716 21.4417 19.9192 21.357 20.0039C21.2723 20.0886 21.2248 20.2034 21.2248 20.3232V21.0457C20.4395 20.2907 19.3919 19.8697 18.3025 19.8716H17.7186C17.3806 19.8707 17.0475 19.9525 16.7484 20.11C16.4493 20.2674 16.1932 20.4956 16.0026 20.7748H13.0961C12.8679 20.7752 12.6436 20.8334 12.4439 20.9439C12.2443 21.0545 12.0759 21.2138 11.9545 21.407L9.71868 19.5194C9.48821 19.2673 9.18695 19.0908 8.8544 19.0129C8.52186 18.9351 8.17355 18.9596 7.85515 19.0831C7.53675 19.2067 7.26314 19.4236 7.07018 19.7054C6.87722 19.9873 6.77393 20.3208 6.77386 20.6623V20.7495C6.77371 21.1681 6.92864 21.5719 7.20874 21.883L10.0479 25.0373C10.3723 25.3988 10.7686 25.6883 11.2115 25.8875C11.6544 26.0867 12.1341 26.191 12.6197 26.1939L21.2248 26.6233V27.5486C21.2248 27.6684 21.2723 27.7833 21.357 27.868C21.4417 27.9527 21.5566 28.0002 21.6763 28.0002H25.2891C25.4088 28.0002 25.5237 27.9527 25.6084 27.868C25.6931 27.7833 25.7407 27.6684 25.7407 27.5486H27.9986V26.6455H25.7407V21.2264H27.9986ZM21.2248 25.7192L12.6445 25.2907C12.2814 25.2904 11.9224 25.2139 11.5907 25.0661C11.259 24.9183 10.962 24.7025 10.719 24.4327L7.88026 21.2788C7.74946 21.1335 7.67707 20.945 7.67704 20.7495V20.6623C7.6772 20.5015 7.7264 20.3446 7.81807 20.2124C7.90974 20.0803 8.03952 19.9792 8.1901 19.9228C8.34069 19.8663 8.50491 19.8571 8.66086 19.8963C8.81682 19.9356 8.95709 20.0215 9.06297 20.1426C9.07825 20.1596 9.09469 20.1756 9.1122 20.1904L11.7815 22.443C11.8519 22.7389 12.0199 23.0026 12.2583 23.1915C12.4968 23.3804 12.7919 23.4836 13.0961 23.4843H16.2573V22.5811H13.0961C12.9764 22.5811 12.8615 22.5336 12.7768 22.4489C12.6921 22.3642 12.6445 22.2493 12.6445 22.1296C12.6445 22.0098 12.6921 21.8949 12.7768 21.8102C12.8615 21.7255 12.9764 21.678 13.0961 21.678H16.2573C16.3416 21.6784 16.4243 21.6553 16.4961 21.6111C16.568 21.567 16.626 21.5036 16.6637 21.4282C16.761 21.2317 16.9113 21.0663 17.0978 20.9508C17.2842 20.8353 17.4993 20.7743 17.7186 20.7748H18.3025C18.7391 20.7733 19.1717 20.8583 19.5753 21.0249C19.9789 21.1914 20.3455 21.4363 20.6539 21.7452C20.8618 22.0516 21.0523 22.3692 21.2248 22.6968V25.7192ZM24.8375 27.097H22.1279V20.7748H24.8375V27.097Z" fill="#0FBC91"/>
</svg>
