<svg width="57" height="52" viewBox="0 0 57 52" fill="none" xmlns="http://www.w3.org/2000/svg">
<path d="M7.72888 15.4625C7.17533 17.2558 8.10126 19.172 9.8502 19.8527C8.05696 19.2991 6.14073 20.2251 5.46005 21.974C6.0136 20.1808 5.08768 18.2645 3.33873 17.5839C5.13197 18.1374 7.0482 17.2115 7.72888 15.4625Z" fill="#EFFFFB"/>
<path d="M9.89629 45.3631C10.3334 46.5354 11.6019 47.1708 12.8025 46.8188C11.6303 47.2559 10.9949 48.5245 11.3468 49.725C10.9097 48.5528 9.64118 47.9174 8.4406 48.2693C9.61286 47.8322 10.2482 46.5637 9.89629 45.3631Z" fill="#EFFFFB"/>
<path d="M49.815 23.496C49.6686 24.7386 50.5071 25.883 51.7359 26.1181C50.4934 25.9717 49.3489 26.8102 49.1139 28.039C49.2602 26.7965 48.4218 25.652 47.1929 25.417C48.4355 25.5633 49.5799 24.7249 49.815 23.496Z" fill="#EFFFFB"/>
<path d="M1.85826 31.2509C1.66709 31.845 1.96734 32.4858 2.54614 32.719C1.95211 32.5279 1.31131 32.8281 1.07804 33.4069C1.26921 32.8129 0.968964 32.1721 0.390165 31.9388C0.984198 32.13 1.625 31.8297 1.85826 31.2509Z" fill="#EFFFFB"/>
<path d="M51.4559 37.8642C51.2647 38.4583 51.565 39.0991 52.1438 39.3323C51.5498 39.1412 50.909 39.4414 50.6757 40.0202C50.8669 39.4262 50.5666 38.7854 49.9878 38.5521C50.5819 38.7433 51.2227 38.443 51.4559 37.8642Z" fill="#EFFFFB"/>
<path d="M40.4339 40.6196C40.2428 41.2136 40.543 41.8544 41.1218 42.0877C40.5278 41.8965 39.887 42.1968 39.6537 42.7756C39.8449 42.1815 39.5446 41.5407 38.9658 41.3075C39.5599 41.4986 40.2007 41.1984 40.4339 40.6196Z" fill="#EFFFFB"/>
<path d="M55.8646 7.0029C55.6734 7.59694 55.9737 8.23773 56.5525 8.471C55.9585 8.27983 55.3177 8.58008 55.0844 9.15888C55.2756 8.56484 54.9753 7.92404 54.3965 7.69078C54.9905 7.88195 55.6313 7.5817 55.8646 7.0029Z" fill="#EFFFFB"/>
<path d="M32.7191 13.6162C32.5279 14.2102 32.8282 14.851 33.407 15.0843C32.8129 14.8931 32.1721 15.1934 31.9389 15.7722C32.1301 15.1781 31.8298 14.5373 31.251 14.3041C31.845 14.4952 32.4858 14.195 32.7191 13.6162Z" fill="#EFFFFB"/>
<path d="M47.0863 16.9509L33.7919 50.2608C33.4086 51.2211 32.3187 51.6892 31.3584 51.306L9.01153 42.3871C8.05122 42.0038 7.58425 40.9143 7.96752 39.954L21.2619 6.6441C21.6451 5.68378 22.7339 5.21524 23.6942 5.59852L46.0411 14.5174C47.0015 14.9007 47.4695 15.9906 47.0863 16.9509Z" fill="#11D4A4"/>
<path d="M45.9814 16.6323L22.2812 7.17334L9.07114 40.2722L32.7713 49.7312L45.9814 16.6323Z" fill="#F7F7F7"/>
<path d="M32.7715 49.731L9.07129 40.272L8.88175 40.7469L32.5819 50.2059L32.7715 49.731Z" fill="#0FBC91"/>
<path opacity="0.1" d="M39.9596 14.9693C40.0342 14.7255 39.9108 14.4612 39.67 14.3651L39.696 14.3755C39.696 14.3755 36.8402 12.5435 37.0824 11.2271L38.375 7.98836C38.7801 6.97331 38.2855 5.82129 37.2703 5.41613C36.2553 5.01101 35.1039 5.50596 34.6988 6.52111L33.4061 9.75988C32.675 10.8811 29.3424 10.2433 29.3424 10.2433L29.3689 10.2538C29.1276 10.1575 28.8562 10.2642 28.7429 10.4926C28.7368 10.5048 28.7312 10.5173 28.7261 10.5299C28.6248 10.7839 28.7483 11.0714 29.0022 11.1727L39.3033 15.284C39.5567 15.3852 39.8448 15.2619 39.9461 15.0079C39.9512 14.9953 39.9557 14.9824 39.9596 14.9693ZM36.9187 6.29708C37.5164 6.53562 37.8073 7.21306 37.5688 7.81073C37.3303 8.40841 36.6528 8.69935 36.0551 8.46081C35.4581 8.22254 35.1665 7.54484 35.4051 6.94717C35.6436 6.3496 36.3216 6.05877 36.9187 6.29708Z" fill="black"/>
<path d="M23.0635 18.2312L20.9822 17.4005C20.5822 17.2409 20.3867 16.7856 20.5463 16.3857L21.377 14.3044C21.5366 13.9045 21.9919 13.709 22.3918 13.8686L24.4731 14.6993C24.873 14.8589 25.0685 15.3141 24.9089 15.714L24.0782 17.7953C23.9186 18.1954 23.4634 18.3908 23.0635 18.2312ZM22.3329 14.0161C22.0143 13.8889 21.6516 14.0447 21.5244 14.3633L20.6937 16.4447C20.5665 16.7633 20.7223 17.126 21.0409 17.2532L23.1223 18.0839C23.4409 18.211 23.8036 18.0553 23.9308 17.7366L24.7615 15.6553C24.8887 15.3366 24.7329 14.974 24.4143 14.8468L22.3329 14.0161Z" fill="#E0E0E0"/>
<path d="M39.1006 22.3996L26.5235 17.38C26.2707 17.2791 26.1475 16.9923 26.2485 16.7395C26.3494 16.4867 26.6361 16.3635 26.8889 16.4644L39.466 21.4841C39.7189 21.585 39.842 21.8717 39.7411 22.1246C39.6402 22.3774 39.3535 22.5006 39.1006 22.3996Z" fill="#E0E0E0"/>
<path d="M35.2072 22.2768L26.0308 18.6144C25.778 18.5134 25.6549 18.2267 25.7558 17.9739C25.8567 17.721 26.1434 17.5979 26.3962 17.6988L35.5726 21.3612C35.8255 21.4621 35.9486 21.7488 35.8477 22.0017C35.7468 22.2545 35.4601 22.3777 35.2072 22.2768Z" fill="#E0E0E0"/>
<path d="M20.9783 23.4551L18.897 22.6244C18.5371 22.4808 18.3619 22.0727 18.5055 21.7128L19.3362 19.6315C19.4798 19.2717 19.8879 19.0964 20.2477 19.24L22.3291 20.0707C22.6889 20.2143 22.8642 20.6224 22.7205 20.9822L21.8899 23.0636C21.7462 23.4234 21.3382 23.5987 20.9783 23.4551Z" stroke="#B5FFED" stroke-width="0.242381" stroke-miterlimit="10"/>
<path d="M36.9864 27.697L24.4093 22.6773C24.1564 22.5764 24.0333 22.2897 24.1342 22.0369C24.2351 21.784 24.5218 21.6609 24.7747 21.7618L37.3518 26.7815C37.6046 26.8824 37.7277 27.1691 37.6268 27.4219C37.5259 27.6748 37.2392 27.7979 36.9864 27.697Z" fill="#B5FFED"/>
<path d="M28.9451 25.9193L23.9161 23.9122C23.6633 23.8113 23.5401 23.5246 23.641 23.2717C23.7419 23.0189 24.0287 22.8958 24.2815 22.9967L29.3105 25.0038C29.5633 25.1047 29.6865 25.3914 29.5856 25.6443C29.4847 25.8971 29.1979 26.0203 28.9451 25.9193Z" fill="#B5FFED"/>
<path d="M18.8345 28.8265L16.7531 27.9958C16.3532 27.8362 16.1577 27.381 16.3173 26.9811L17.148 24.8996C17.3076 24.4997 17.7629 24.3042 18.1628 24.4638L20.2441 25.2945C20.644 25.4541 20.8395 25.9093 20.6799 26.3092L19.8492 28.3907C19.6896 28.7905 19.2344 28.9861 18.8345 28.8265ZM18.1039 24.6112C17.7853 24.484 17.4226 24.6398 17.2955 24.9583L16.4647 27.0398C16.3376 27.3584 16.4934 27.721 16.812 27.8482L18.8934 28.6789C19.212 28.806 19.5747 28.6504 19.7018 28.3317L20.5326 26.2503C20.6597 25.9317 20.5039 25.5691 20.1853 25.4419L18.1039 24.6112Z" fill="#E0E0E0"/>
<path d="M34.8716 32.9949L22.2945 27.9752C22.0417 27.8743 21.9185 27.5876 22.0194 27.3347C22.1204 27.0819 22.4071 26.9587 22.6599 27.0597L35.237 32.0793C35.4899 32.1802 35.613 32.4669 35.5121 32.7198C35.4112 32.9725 35.1244 33.0958 34.8716 32.9949Z" fill="#E0E0E0"/>
<path d="M27.9709 31.6712L21.8018 29.2091C21.549 29.1082 21.4259 28.8214 21.5268 28.5686C21.6277 28.3158 21.9144 28.1926 22.1672 28.2935L28.3363 30.7557C28.5891 30.8566 28.7123 31.1433 28.6114 31.3962C28.5106 31.6489 28.2237 31.7721 27.9709 31.6712Z" fill="#E0E0E0"/>
<path d="M16.7202 34.1238L14.6389 33.2932C14.2389 33.1335 14.0434 32.6783 14.203 32.2784L15.0338 30.1969C15.1934 29.797 15.6486 29.6015 16.0485 29.7611L18.1299 30.5918C18.5298 30.7514 18.7253 31.2067 18.5657 31.6066L17.7349 33.688C17.5754 34.0878 17.1201 34.2835 16.7202 34.1238ZM15.9897 29.9085C15.671 29.7814 15.3084 29.937 15.1812 30.2557L14.3505 32.3371C14.2233 32.6558 14.3791 33.0183 14.6978 33.1455L16.7791 33.9762C17.0978 34.1034 17.4604 33.9477 17.5876 33.6291L18.4183 31.5476C18.5455 31.229 18.3897 30.8664 18.071 30.7392L15.9897 29.9085Z" fill="#E0E0E0"/>
<path d="M32.7574 38.2917L20.1803 33.2721C19.9274 33.1712 19.8043 32.8844 19.9052 32.6316C20.0061 32.3788 20.2928 32.2556 20.5457 32.3565L33.1228 37.3762C33.3756 37.4771 33.4987 37.7638 33.3978 38.0167C33.297 38.2694 33.0102 38.3926 32.7574 38.2917Z" fill="#E0E0E0"/>
<path d="M31.8872 39.3754L19.6876 34.5064C19.4347 34.4055 19.3116 34.1188 19.4125 33.866C19.5134 33.6131 19.8001 33.49 20.053 33.5909L32.2527 38.4599C32.5055 38.5608 32.6287 38.8476 32.5277 39.1004C32.4268 39.3532 32.14 39.4763 31.8872 39.3754Z" fill="#E0E0E0"/>
<path d="M14.6065 39.4211L12.5251 38.5904C12.1252 38.4308 11.9297 37.9756 12.0893 37.5757L12.92 35.4943C13.0796 35.0944 13.5348 34.8989 13.9347 35.0585L16.0161 35.8892C16.416 36.0488 16.6115 36.504 16.4519 36.9039L15.6212 38.9853C15.4617 39.3851 15.0064 39.5807 14.6065 39.4211ZM13.8759 35.2059C13.5573 35.0787 13.1946 35.2344 13.0675 35.553L12.2368 37.6344C12.1096 37.953 12.2654 38.3156 12.584 38.4428L14.6654 39.2735C14.984 39.4006 15.3467 39.245 15.4739 38.9263L16.3045 36.845C16.4317 36.5263 16.2759 36.1638 15.9573 36.0366L13.8759 35.2059Z" fill="#E0E0E0"/>
<path d="M30.6436 43.5896L18.0665 38.5699C17.8137 38.469 17.6905 38.1823 17.7914 37.9295C17.8923 37.6766 18.1791 37.5535 18.4319 37.6544L31.009 42.674C31.2618 42.7749 31.385 43.0617 31.2841 43.3145C31.1831 43.5673 30.8964 43.6905 30.6436 43.5896Z" fill="#E0E0E0"/>
<path d="M27.8274 43.8968L17.5733 39.8043C17.3205 39.7034 17.1973 39.4167 17.2983 39.1638C17.3992 38.911 17.6859 38.7878 17.9387 38.8888L28.1928 42.9813C28.4457 43.0822 28.5688 43.3689 28.4679 43.6218C28.3671 43.8746 28.0803 43.9977 27.8274 43.8968Z" fill="#E0E0E0"/>
<path d="M39.9895 14.896C40.0641 14.6522 39.9407 14.3879 39.7 14.2918L39.7259 14.3022C39.7259 14.3022 36.8701 12.4701 37.1123 11.1538L38.4049 7.91516C38.81 6.90012 38.3154 5.74809 37.3002 5.34293C36.2852 4.93781 35.1338 5.43276 34.7286 6.44792L33.436 9.68668C32.7049 10.808 29.3723 10.1701 29.3723 10.1701L29.3988 10.1806C29.1575 10.0843 28.8861 10.1909 28.7728 10.4194C28.7667 10.4316 28.7609 10.444 28.7559 10.4568C28.6545 10.7107 28.7781 10.9983 29.0319 11.0996L39.333 15.2109C39.5863 15.312 39.8745 15.1887 39.9759 14.9348C39.9812 14.922 39.9857 14.9092 39.9895 14.896ZM36.9487 6.22393C37.5464 6.46247 37.8373 7.1399 37.5988 7.73758C37.3603 8.33526 36.6828 8.6262 36.0852 8.38766C35.4881 8.14939 35.1965 7.47169 35.4351 6.87401C35.6736 6.27634 36.3516 5.98562 36.9487 6.22393Z" fill="#FFB100"/>
<path d="M39.9763 14.9345C39.8749 15.1885 39.5868 15.3117 39.3335 15.2106L29.0324 11.0993C28.7784 10.998 28.655 10.7104 28.7563 10.4565C28.7613 10.4439 28.767 10.4314 28.7733 10.4192L39.9899 14.8959C39.9858 14.909 39.9813 14.9219 39.9763 14.9345Z" fill="#F5973A"/>
</svg>
