<svg width="80" height="80" viewBox="0 0 80 80" fill="none" xmlns="http://www.w3.org/2000/svg">
<circle cx="40" cy="40" r="40" fill="#F9FAFB"/>
<path d="M60.3394 51.2579L44.2977 23.48C43.8623 22.7259 43.2361 22.0998 42.4821 21.6645C41.728 21.2292 40.8727 21 40.002 21C39.1313 21 38.276 21.2292 37.522 21.6645C36.7679 22.0998 36.1417 22.7259 35.7064 23.48L19.6646 51.2579C19.2291 52.0123 18.9999 52.868 19 53.739C19.0002 54.6101 19.2297 55.4657 19.6656 56.2199C20.1014 56.9741 20.7281 57.6002 21.4827 58.0353C22.2373 58.4704 23.0932 58.6991 23.9642 58.6984H56.0398C56.9105 58.6984 57.7659 58.4692 58.5199 58.0338C59.274 57.5984 59.9002 56.9723 60.3355 56.2182C60.7708 55.4641 61 54.6088 61 53.738C61 52.8673 60.7708 52.012 60.3355 51.2579H60.3394Z" fill="url(#paint0_linear_321_4936)"/>
<path d="M40.002 46.7934C40.5218 46.7958 41.0238 46.6037 41.4092 46.255C41.7947 45.9062 42.0359 45.4259 42.0854 44.9085L43.256 33.2021C43.2976 32.7878 43.2519 32.3694 43.1217 31.9739C42.9915 31.5784 42.7798 31.2146 42.5003 30.9061C42.2207 30.5975 41.8795 30.3511 41.4987 30.1826C41.118 30.0142 40.7061 29.9275 40.2897 29.9282H39.7143C39.2984 29.9282 38.887 30.0154 38.5069 30.1841C38.1267 30.3529 37.7861 30.5994 37.5071 30.9079C37.228 31.2164 37.0168 31.5799 36.8869 31.9751C36.757 32.3702 36.7114 32.7882 36.753 33.2021L37.9236 44.9085C37.9731 45.4251 38.2135 45.9046 38.5979 46.2533C38.9823 46.6019 39.483 46.7945 40.002 46.7934Z" fill="url(#paint1_linear_321_4936)"/>
<path d="M40.002 54.7301C41.9197 54.7301 43.4743 53.1756 43.4743 51.2579C43.4743 49.3402 41.9197 47.7856 40.002 47.7856C38.0844 47.7856 36.5298 49.3402 36.5298 51.2579C36.5298 53.1756 38.0844 54.7301 40.002 54.7301Z" fill="url(#paint2_linear_321_4936)"/>
<defs>
<linearGradient id="paint0_linear_321_4936" x1="28.2301" y1="37.2062" x2="57.8861" y2="58.0923" gradientUnits="userSpaceOnUse">
<stop stop-color="#FED200"/>
<stop offset="1" stop-color="#F59815"/>
</linearGradient>
<linearGradient id="paint1_linear_321_4936" x1="36.3492" y1="32.4957" x2="43.5239" y2="42.9392" gradientUnits="userSpaceOnUse">
<stop stop-color="#3E4154"/>
<stop offset="1" stop-color="#1B2129"/>
</linearGradient>
<linearGradient id="paint2_linear_321_4936" x1="37.7986" y1="49.0545" x2="42.0616" y2="53.3174" gradientUnits="userSpaceOnUse">
<stop stop-color="#3E4154"/>
<stop offset="1" stop-color="#1B2129"/>
</linearGradient>
</defs>
</svg>
