<svg width="16" height="16" viewBox="0 0 16 16" fill="none" xmlns="http://www.w3.org/2000/svg">
<path fill-rule="evenodd" clip-rule="evenodd" d="M4 1.6C3.36348 1.6 2.75303 1.85286 2.30294 2.30294C1.85286 2.75303 1.6 3.36348 1.6 4V12C1.6 12.6365 1.85286 13.247 2.30294 13.6971C2.75303 14.1471 3.36348 14.4 4 14.4H12C12.6365 14.4 13.247 14.1471 13.6971 13.6971C14.1471 13.247 14.4 12.6365 14.4 12V7.2C14.4 6.98783 14.4843 6.78434 14.6343 6.63432C14.7843 6.48429 14.9878 6.4 15.2 6.4C15.4122 6.4 15.6157 6.48429 15.7657 6.63432C15.9157 6.78434 16 6.98783 16 7.2V12C16 13.0609 15.5786 14.0783 14.8284 14.8284C14.0783 15.5786 13.0609 16 12 16H4C2.93913 16 1.92172 15.5786 1.17157 14.8284C0.421427 14.0783 0 13.0609 0 12V4C0 2.93913 0.421427 1.92172 1.17157 1.17157C1.92172 0.421427 2.93913 0 4 0H8.8C9.01217 0 9.21566 0.0842854 9.36569 0.234315C9.51571 0.384344 9.6 0.587827 9.6 0.8C9.6 1.01217 9.51571 1.21566 9.36569 1.36569C9.21566 1.51571 9.01217 1.6 8.8 1.6H4Z" fill="#FF8D28"/>
<path fill-rule="evenodd" clip-rule="evenodd" d="M12.1728 0.656008C12.5957 0.246992 13.1623 0.0205374 13.7506 0.0254695C14.3389 0.0304017 14.9017 0.266326 15.3176 0.682375C15.7336 1.09842 15.9693 1.66127 15.9741 2.24956C15.9789 2.83785 15.7523 3.40445 15.3432 3.82721L14.7168 4.45441C14.5668 4.60439 14.3633 4.68864 14.1512 4.68864C13.9391 4.68864 13.7356 4.60439 13.5856 4.45441L11.5456 2.41441C11.3956 2.26439 11.3114 2.06094 11.3114 1.84881C11.3114 1.63668 11.3956 1.43323 11.5456 1.28321L12.1728 0.656008ZM10.4144 3.54561C10.2644 3.39563 10.0609 3.31138 9.84879 3.31138C9.63666 3.31138 9.43321 3.39563 9.28319 3.54561L5.71439 7.11521C5.61195 7.21761 5.53923 7.34591 5.50399 7.48641L4.82399 10.2064C4.79058 10.3404 4.79244 10.4808 4.82937 10.6139C4.86631 10.747 4.93708 10.8682 5.03478 10.9658C5.13248 11.0635 5.25379 11.1341 5.38691 11.171C5.52002 11.2078 5.6604 11.2095 5.79439 11.176L8.51359 10.496C8.65409 10.4608 8.78239 10.3881 8.88479 10.2856L12.4544 6.71681C12.6044 6.56679 12.6886 6.36334 12.6886 6.15121C12.6886 5.93908 12.6044 5.73563 12.4544 5.58561L10.4144 3.54561Z" fill="#FF8D28"/>
</svg>
