<svg width="171" height="150" viewBox="0 0 171 150" fill="none" xmlns="http://www.w3.org/2000/svg">
<path d="M22.97 109.622C23.7518 109.622 24.3856 108.988 24.3856 108.206C24.3856 107.424 23.7518 106.791 22.97 106.791C22.1881 106.791 21.5543 107.424 21.5543 108.206C21.5543 108.988 22.1881 109.622 22.97 109.622Z" fill="#CFCFCF"/>
<path d="M114.771 50.4605C102.68 50.4605 90.3724 49.9693 78.8594 46.7623C67.5631 43.6274 57.1912 37.5455 47.9462 30.5102C41.8935 25.9307 36.3898 22.2758 28.5315 22.8247C20.8437 23.2408 13.492 26.1117 7.55671 31.0158C-2.43953 39.7702 -0.937209 55.9934 3.06418 67.3482C9.07348 84.496 27.3614 96.4431 42.9047 104.172C60.8604 113.143 80.5928 118.358 100.369 121.348C117.703 123.992 139.978 125.899 155.001 114.588C168.797 104.172 172.581 80.4221 169.201 64.3867C168.381 59.6496 165.859 55.3752 162.108 52.3674C152.416 45.2743 137.956 50.0127 127.064 50.2438C123.019 50.3305 118.902 50.4316 114.771 50.4605Z" fill="#F2F2F2"/>
<path d="M89.5924 123.131C98.5995 123.131 105.901 115.829 105.901 106.822C105.901 97.8139 98.5995 90.5117 89.5924 90.5117C80.5852 90.5117 73.2834 97.8139 73.2834 106.822C73.2834 115.829 80.5852 123.131 89.5924 123.131Z" fill="#D2D2D2"/>
<path d="M72.7397 5.01441C73.6414 4.81334 74.5739 4.79185 75.4839 4.95117C76.3939 5.11049 77.2636 5.4475 78.0434 5.94296C78.8231 6.43842 79.4977 7.08261 80.0285 7.83878C80.5593 8.59494 80.936 9.44826 81.1371 10.35L83.7433 22.0389L69.9825 25.1075L67.3763 13.4185C67.1747 12.5144 67.1536 11.5794 67.3143 10.6671C67.4749 9.75478 67.8142 8.88321 68.3125 8.10236C68.8108 7.32151 69.4584 6.64677 70.2182 6.11686C70.9779 5.58694 71.8348 5.21229 72.7397 5.01441Z" fill="white" stroke="#BABABA" stroke-linecap="round" stroke-linejoin="round"/>
<path d="M137.031 96.7007L53.4066 115.336C52.8872 115.453 52.3464 115.432 51.8375 115.276C51.3286 115.12 50.8692 114.834 50.5046 114.446C50.14 114.058 49.8828 113.581 49.7585 113.064C49.6341 112.546 49.6468 112.005 49.7953 111.494L50.142 110.295C53.0311 100.052 55.5446 88.7697 53.2333 78.3684L48.293 56.1788C44.1327 37.5287 55.3134 18.5318 73.8614 13.9523C78.3843 12.8294 83.086 12.6227 87.69 13.3441C92.294 14.0656 96.7071 15.7007 100.67 18.1533C104.632 20.6058 108.064 23.8263 110.764 27.6251C113.464 31.424 115.376 35.7244 116.389 40.2735L121.488 63.2142C123.814 73.6155 130.834 82.8034 137.855 90.8066L138.678 91.7456C139.012 92.1478 139.237 92.6281 139.333 93.1415C139.43 93.6549 139.394 94.1843 139.229 94.68C139.065 95.1757 138.776 95.6213 138.392 95.9748C138.007 96.3284 137.539 96.5782 137.031 96.7007Z" fill="white" stroke="#BABABA" stroke-linecap="round" stroke-linejoin="round"/>
<path d="M75.1759 82.3914C75.153 79.0172 76.2866 75.737 78.3879 73.0969C80.4892 70.4568 83.4313 68.6162 86.7244 67.8816C90.0176 67.1469 93.463 67.5625 96.487 69.0591C99.511 70.5558 101.931 73.0432 103.344 76.1072" stroke="#BABABA" stroke-linecap="round" stroke-linejoin="round"/>
<path d="M100.975 58.9636C102.108 58.9636 103.027 58.0452 103.027 56.9122C103.027 55.7793 102.108 54.8608 100.975 54.8608C99.8424 54.8608 98.9241 55.7793 98.9241 56.9122C98.9241 58.0452 99.8424 58.9636 100.975 58.9636Z" fill="#BABABA"/>
<path d="M69.1665 66.052C70.2994 66.052 71.2177 65.1335 71.2177 64.0006C71.2177 62.8676 70.2994 61.9492 69.1665 61.9492C68.0336 61.9492 67.1152 62.8676 67.1152 64.0006C67.1152 65.1335 68.0336 66.052 69.1665 66.052Z" fill="#BABABA"/>
<path d="M107.418 2.83148C108.2 2.83148 108.834 2.19763 108.834 1.41574C108.834 0.633847 108.2 0 107.418 0C106.636 0 106.003 0.633847 106.003 1.41574C106.003 2.19763 106.636 2.83148 107.418 2.83148Z" fill="#CFCFCF"/>
<path d="M22.97 109.622C23.7518 109.622 24.3856 108.988 24.3856 108.206C24.3856 107.424 23.7518 106.791 22.97 106.791C22.1881 106.791 21.5543 107.424 21.5543 108.206C21.5543 108.988 22.1881 109.622 22.97 109.622Z" fill="#CFCFCF"/>
<path d="M146.536 35.6108V41.8228" stroke="#BABABA" stroke-linecap="round" stroke-linejoin="round"/>
<path d="M143.431 38.7266H149.642" stroke="#BABABA" stroke-linecap="round" stroke-linejoin="round"/>
<path d="M149.368 129.124V135.335" stroke="#BABABA" stroke-linecap="round" stroke-linejoin="round"/>
<path d="M146.262 132.241H152.473" stroke="#BABABA" stroke-linecap="round" stroke-linejoin="round"/>
<path d="M40.7668 12.0562V18.2681" stroke="#BABABA" stroke-linecap="round" stroke-linejoin="round"/>
<path d="M37.6611 15.1719H43.8727" stroke="#BABABA" stroke-linecap="round" stroke-linejoin="round"/>
<path d="M85.7646 149.452C115.052 149.452 138.794 147.971 138.794 146.144C138.794 144.317 115.052 142.836 85.7646 142.836C56.4773 142.836 32.7354 144.317 32.7354 146.144C32.7354 147.971 56.4773 149.452 85.7646 149.452Z" fill="#F2F2F2"/>
<path d="M136.424 32.0768C136.421 36.4702 134.674 40.6826 131.567 43.7893C128.461 46.8959 124.249 48.6429 119.856 48.6467C119.315 48.6466 118.775 48.6177 118.238 48.56L113.326 56.5777L111.795 46.5375C109.243 45.1166 107.112 43.0463 105.618 40.5366C104.124 38.0268 103.32 35.1667 103.288 32.246C103.255 29.3254 103.995 26.448 105.432 23.9054C106.87 21.3628 108.954 19.2454 111.473 17.7677C113.992 16.29 116.858 15.5045 119.778 15.4909C122.699 15.4773 125.571 16.2359 128.104 17.69C130.637 19.1441 132.741 21.242 134.202 23.771C135.663 26.3001 136.43 29.1704 136.424 32.0912V32.0768Z" fill="white" stroke="#BABABA" stroke-linecap="round" stroke-linejoin="round"/>
<path d="M112.777 33.7676C113.703 33.7676 114.453 33.0173 114.453 32.0918C114.453 31.1663 113.703 30.416 112.777 30.416C111.852 30.416 111.102 31.1663 111.102 32.0918C111.102 33.0173 111.852 33.7676 112.777 33.7676Z" fill="#D2D2D2" stroke="#D2D2D2" stroke-miterlimit="10"/>
<path d="M119.856 33.7676C120.781 33.7676 121.531 33.0173 121.531 32.0918C121.531 31.1663 120.781 30.416 119.856 30.416C118.93 30.416 118.18 31.1663 118.18 32.0918C118.18 33.0173 118.93 33.7676 119.856 33.7676Z" fill="#D2D2D2" stroke="#D2D2D2" stroke-miterlimit="10"/>
<path d="M126.934 33.7676C127.859 33.7676 128.609 33.0173 128.609 32.0918C128.609 31.1663 127.859 30.416 126.934 30.416C126.008 30.416 125.258 31.1663 125.258 32.0918C125.258 33.0173 126.008 33.7676 126.934 33.7676Z" fill="#D2D2D2" stroke="#D2D2D2" stroke-miterlimit="10"/>
</svg>
