<svg width="62" height="47" viewBox="0 0 62 47" fill="none" xmlns="http://www.w3.org/2000/svg">
<path d="M36.3068 18.1846C32.4763 18.2075 28.5863 18.0291 24.9477 17.0181C21.3091 16.007 18.091 14.0993 15.1655 11.8714C13.2503 10.4212 11.5087 9.26835 9.022 9.44219C6.59065 9.57008 4.26504 10.478 2.38935 12.0315C-0.773843 14.8039 -0.293878 19.9276 0.967743 23.5326C2.86932 28.9629 8.65631 32.7325 13.5702 35.1892C19.2521 38.0301 25.4916 39.6816 31.7495 40.6286C37.2348 41.4612 44.2788 42.0697 49.0282 38.483C53.3936 35.1937 54.5912 27.6728 53.5215 22.5947C53.2612 21.0949 52.4632 19.7416 51.2771 18.7885C48.2099 16.5469 43.6389 18.0428 40.1923 18.1206C38.9352 18.148 37.6142 18.1801 36.3068 18.1846Z" fill="#F2F2F2"/>
<path d="M17.6306 0.424805V2.39197" stroke="#CFCFCF" stroke-width="0.85" stroke-linecap="round" stroke-linejoin="round"/>
<path d="M16.6478 1.40771H18.6134" stroke="#CFCFCF" stroke-width="0.85" stroke-linecap="round" stroke-linejoin="round"/>
<path d="M54.9171 39.6406V41.6078" stroke="#CFCFCF" stroke-width="0.85" stroke-linecap="round" stroke-linejoin="round"/>
<path d="M53.9343 40.623H55.8998" stroke="#CFCFCF" stroke-width="0.85" stroke-linecap="round" stroke-linejoin="round"/>
<path d="M2.77432 31.1413C3.02173 31.1413 3.22229 30.9406 3.22229 30.693C3.22229 30.4454 3.02173 30.2446 2.77432 30.2446C2.52692 30.2446 2.32635 30.4454 2.32635 30.693C2.32635 30.9406 2.52692 31.1413 2.77432 31.1413Z" fill="#CFCFCF"/>
<path d="M40.921 2.45916C41.1685 2.45916 41.369 2.25844 41.369 2.01083C41.369 1.76322 41.1685 1.5625 40.921 1.5625C40.6736 1.5625 40.4731 1.76322 40.4731 2.01083C40.4731 2.25844 40.6736 2.45916 40.921 2.45916Z" fill="#CFCFCF"/>
<path d="M28.5081 46.5182C37.7731 46.5182 45.284 46.0512 45.284 45.4752C45.284 44.8991 37.7731 44.4321 28.5081 44.4321C19.243 44.4321 11.7322 44.8991 11.7322 45.4752C11.7322 46.0512 19.243 46.5182 28.5081 46.5182Z" fill="#F2F2F2"/>
<path d="M15.5831 5.77002H39.947C40.5532 5.77002 41.1345 6.01101 41.5631 6.43998C41.9918 6.86895 42.2326 7.45076 42.2326 8.05742V37.0662C42.2326 37.6729 41.9918 38.2547 41.5631 38.6837C41.1345 39.1126 40.5532 39.3536 39.947 39.3536H12.4611C11.8549 39.3536 11.2736 39.1126 10.845 38.6837C10.4163 38.2547 10.1755 37.6729 10.1755 37.0662V11.2369L15.5831 5.77002Z" fill="white" stroke="#BABABA" stroke-width="0.2" stroke-linecap="round" stroke-linejoin="round"/>
<path d="M42 19.4248H17V32.4248H42V19.4248Z" fill="#D2D2D2"/>
<path d="M10.1755 11.2369H14.6049C14.8648 11.2357 15.1136 11.1315 15.2969 10.9472C15.4802 10.7629 15.5831 10.5134 15.5831 10.2533V5.77002L10.1755 11.2369Z" fill="white" stroke="#BABABA" stroke-width="0.2" stroke-linecap="round" stroke-linejoin="round"/>
<path d="M42.0001 13.6079H17.1517C16.1848 13.6079 15.4009 14.3924 15.4009 15.3601V20.6806C15.4009 21.6482 16.1848 22.4327 17.1517 22.4327H42.0001C42.967 22.4327 43.7508 21.6482 43.7508 20.6806V15.3601C43.7508 14.3924 42.967 13.6079 42.0001 13.6079Z" fill="white" stroke="#BABABA" stroke-width="0.2" stroke-linecap="round" stroke-linejoin="round"/>
<path d="M20.2248 19.5545C21.068 19.5545 21.7515 18.8704 21.7515 18.0265C21.7515 17.1826 21.068 16.4985 20.2248 16.4985C19.3816 16.4985 18.6981 17.1826 18.6981 18.0265C18.6981 18.8704 19.3816 19.5545 20.2248 19.5545Z" fill="#D2D2D2"/>
<path d="M25.0279 19.5545C25.8711 19.5545 26.5546 18.8704 26.5546 18.0265C26.5546 17.1826 25.8711 16.4985 25.0279 16.4985C24.1847 16.4985 23.5012 17.1826 23.5012 18.0265C23.5012 18.8704 24.1847 19.5545 25.0279 19.5545Z" fill="#D2D2D2"/>
<path d="M29.8223 19.5545C30.6655 19.5545 31.3491 18.8704 31.3491 18.0265C31.3491 17.1826 30.6655 16.4985 29.8223 16.4985C28.9791 16.4985 28.2956 17.1826 28.2956 18.0265C28.2956 18.8704 28.9791 19.5545 29.8223 19.5545Z" fill="#D2D2D2"/>
<path d="M42.0001 23.3887H17.1517C16.1848 23.3887 15.4009 24.1731 15.4009 25.1408V30.4613C15.4009 31.429 16.1848 32.2135 17.1517 32.2135H42.0001C42.967 32.2135 43.7508 31.429 43.7508 30.4613V25.1408C43.7508 24.1731 42.967 23.3887 42.0001 23.3887Z" fill="white" stroke="#BABABA" stroke-width="0.2" stroke-linecap="round" stroke-linejoin="round"/>
<path d="M20.2248 29.345C21.068 29.345 21.7515 28.6609 21.7515 27.817C21.7515 26.9732 21.068 26.2891 20.2248 26.2891C19.3816 26.2891 18.6981 26.9732 18.6981 27.817C18.6981 28.6609 19.3816 29.345 20.2248 29.345Z" fill="#D2D2D2"/>
<path d="M25.0279 29.345C25.8711 29.345 26.5546 28.6609 26.5546 27.817C26.5546 26.9732 25.8711 26.2891 25.0279 26.2891C24.1847 26.2891 23.5012 26.9732 23.5012 27.817C23.5012 28.6609 24.1847 29.345 25.0279 29.345Z" fill="#D2D2D2"/>
<path d="M29.8223 29.345C30.6655 29.345 31.3491 28.6609 31.3491 27.817C31.3491 26.9732 30.6655 26.2891 29.8223 26.2891C28.9791 26.2891 28.2956 26.9732 28.2956 27.817C28.2956 28.6609 28.9791 29.345 29.8223 29.345Z" fill="#D2D2D2"/>
<path d="M44.2466 24.7493C49.4799 24.7493 53.7224 20.5034 53.7224 15.2658C53.7224 10.0282 49.4799 5.78223 44.2466 5.78223C39.0132 5.78223 34.7707 10.0282 34.7707 15.2658C34.7707 20.5034 39.0132 24.7493 44.2466 24.7493Z" fill="white" stroke="#BABABA" stroke-width="0.2" stroke-linecap="round" stroke-linejoin="round"/>
<path d="M50.9735 22.1436L53.4968 24.6688" stroke="#BABABA" stroke-width="0.2" stroke-linecap="round" stroke-linejoin="round"/>
<path d="M53.2204 23.447L52.4371 24.2671C52.0847 24.636 52.0978 25.221 52.4665 25.5736L59.2731 32.0858C59.6417 32.4384 60.2262 32.4253 60.5786 32.0563L61.3619 31.2362C61.7143 30.8673 61.7012 30.2823 61.3325 29.9297L54.5259 23.4175C54.1573 23.0649 53.5728 23.078 53.2204 23.447Z" fill="white" stroke="#BABABA" stroke-width="0.2" stroke-linecap="round" stroke-linejoin="round"/>
</svg>
