<svg width="68" height="52" viewBox="0 0 68 52" fill="none" xmlns="http://www.w3.org/2000/svg">
<path d="M9.16762 10.4975C8.511 12.6246 9.60933 14.8977 11.6839 15.7051C9.55678 15.0485 7.28376 16.1468 6.47633 18.2214C7.13295 16.0943 6.03462 13.8212 3.96002 13.0138C6.08717 13.6704 8.36019 12.5721 9.16762 10.4975Z" fill="#EFFFFB"/>
<path d="M11.7384 45.9654C12.2569 47.3559 13.7617 48.1096 15.1858 47.6921C13.7952 48.2106 13.0416 49.7154 13.459 51.1395C12.9405 49.7489 11.4358 48.9953 10.0117 49.4127C11.4022 48.8942 12.1559 47.3895 11.7384 45.9654Z" fill="#EFFFFB"/>
<path d="M59.0905 20.0266C58.9169 21.5005 59.9115 22.8581 61.3691 23.1369C59.8952 22.9633 58.5377 23.9579 58.2589 25.4156C58.4324 23.9417 57.4378 22.5841 55.9802 22.3053C57.4541 22.4789 58.8117 21.4843 59.0905 20.0266Z" fill="#EFFFFB"/>
<path d="M2.204 29.2254C1.97724 29.9301 2.33339 30.6902 3.01996 30.9669C2.31532 30.7401 1.5552 31.0963 1.27851 31.7829C1.50527 31.0782 1.14912 30.3181 0.462546 30.0414C1.16719 30.2682 1.9273 29.912 2.204 29.2254Z" fill="#EFFFFB"/>
<path d="M61.037 37.0702C60.8102 37.7748 61.1664 38.5349 61.853 38.8116C61.1483 38.5849 60.3882 38.941 60.1115 39.6276C60.3383 38.9229 59.9821 38.1628 59.2956 37.8861C60.0002 38.1129 60.7603 37.7567 61.037 37.0702Z" fill="#EFFFFB"/>
<path d="M47.9628 40.3387C47.736 41.0434 48.0922 41.8035 48.7788 42.0802C48.0741 41.8534 47.314 42.2096 47.0373 42.8961C47.2641 42.1915 46.9079 41.4314 46.2213 41.1547C46.926 41.3814 47.6861 41.0253 47.9628 40.3387Z" fill="#EFFFFB"/>
<path d="M66.2665 0.462747C66.0397 1.16739 66.3959 1.92751 67.0825 2.2042C66.3778 1.97744 65.6177 2.33359 65.341 3.02017C65.5678 2.31552 65.2116 1.55541 64.525 1.27871C65.2297 1.50547 65.9898 1.14932 66.2665 0.462747Z" fill="#EFFFFB"/>
<path d="M38.8114 8.30699C38.5847 9.01163 38.9408 9.77174 39.6274 10.0484C38.9227 9.82168 38.1626 10.1778 37.8859 10.8644C38.1127 10.1598 37.7565 9.39964 37.07 9.12295C37.7746 9.34971 38.5347 8.99356 38.8114 8.30699Z" fill="#EFFFFB"/>
<path d="M51.3821 28.0939C51.3821 22.3057 46.2512 17.7168 40.2681 17.7168L32.8901 20.4338L29.7437 28.8617C30.1206 33.8992 34.1781 37.9494 39.3272 38.5083C39.5575 38.5334 39.7687 38.6484 39.9148 38.8282C41.6836 41.0032 43.6981 41.832 45.1054 42.1423C45.7875 42.2928 46.3587 41.6131 46.0979 40.9654C45.7082 39.9982 45.5485 38.9164 45.492 38.007C45.4814 37.8419 45.5178 37.6773 45.597 37.5321C45.6762 37.3869 45.7949 37.2671 45.9394 37.1867C49.1918 35.3781 51.3821 31.9835 51.3821 28.0939Z" fill="#D3E7EC"/>
<path d="M44.3218 33.5878H36.8368C36.2732 33.5878 35.8163 33.131 35.8163 32.5676C35.8163 32.0042 36.2732 31.5475 36.8368 31.5475H44.3219C44.8855 31.5475 45.3424 32.0042 45.3424 32.5676C45.3424 33.131 44.8854 33.5878 44.3218 33.5878ZM46.3404 29.4222H35.1587C34.5951 29.4222 34.1382 28.9654 34.1382 28.402C34.1382 27.8386 34.5951 27.3819 35.1587 27.3819H46.3404C46.904 27.3819 47.3609 27.8386 47.3609 28.402C47.3609 28.9654 46.904 29.4222 46.3404 29.4222ZM44.3218 25.2566H36.8368C36.2732 25.2566 35.8163 24.7999 35.8163 24.2365C35.8163 23.6731 36.2732 23.2163 36.8368 23.2163H44.3219C44.8855 23.2163 45.3424 23.6731 45.3424 24.2365C45.3424 24.7999 44.8854 25.2566 44.3218 25.2566Z" fill="#BFD3DD"/>
<path d="M29.5708 7.34277C23.5877 7.34277 18.7373 12.0351 18.7373 17.8233C18.7373 21.726 20.9425 25.1305 24.2132 26.9343C24.3468 27.0079 24.457 27.1178 24.5308 27.2514C24.6046 27.3849 24.6391 27.5366 24.6303 27.6889C24.5748 28.6346 24.4088 29.7743 23.9867 30.7795C23.7332 31.3831 24.2491 32.0291 24.8908 31.8979C26.1024 31.65 27.808 31.0162 29.4187 29.4249L32.2367 18.1654L29.5708 7.34277Z" fill="#512402"/>
<path d="M29.5711 7.34277C29.5201 7.34277 29.4693 7.344 29.4185 7.34468V29.4244C29.7021 29.1441 29.97 28.8482 30.2208 28.5381C30.3561 28.3706 30.5523 28.2635 30.7665 28.2404C36.1872 27.6648 40.4047 23.2207 40.4047 17.8233C40.4047 12.0351 35.5544 7.34277 29.5711 7.34277Z" fill="#461F01"/>
<path d="M29.4179 17.2459C28.7828 17.7701 28.3983 18.5619 28.3983 19.4142C28.3983 19.9776 28.8552 20.4343 29.4188 20.4343L30.5032 17.8527L29.4179 17.2459ZM29.4453 11.8258C28.1048 11.8153 26.8784 12.5437 26.2441 13.7248C25.9775 14.2212 26.164 14.8397 26.6606 15.1061C27.1573 15.3727 27.7758 15.1862 28.0424 14.6898C28.1757 14.4406 28.3742 14.2324 28.6166 14.0872C28.8591 13.9421 29.1365 13.8656 29.4191 13.866H29.4306L30.1746 12.9588L29.4453 11.8258Z" fill="#FFF5F5"/>
<path d="M29.9282 22.9371L29.418 23.9573C28.8544 23.9573 28.3975 23.5005 28.3975 22.9371C28.3975 22.3737 28.8544 21.917 29.418 21.917L29.9282 22.9371Z" fill="#FFF5F5"/>
<path d="M29.4448 11.8257C29.436 11.8256 29.4272 11.826 29.4185 11.826V13.8659H29.4302C29.8545 13.869 30.2478 14.0336 30.5377 14.3295C30.828 14.6257 30.9846 15.0228 30.9789 15.4478C30.9707 16.0535 30.6073 16.6046 30.0533 16.8517C29.8248 16.9542 29.6112 17.0871 29.4185 17.247V20.4342C29.9821 20.4342 30.439 19.9775 30.439 19.4141C30.439 19.1103 30.6141 18.8359 30.885 18.715C32.1628 18.145 33.0007 16.8734 33.0196 15.4756C33.0328 14.5033 32.6692 13.5893 31.9958 12.902C31.3227 12.2149 30.4168 11.8327 29.4448 11.8257ZM30.439 22.9368C30.439 22.3734 29.9821 21.9167 29.4185 21.9167V23.957C29.9821 23.957 30.439 23.5002 30.439 22.9368Z" fill="#D3E7EC"/>
</svg>
