<svg width="390" height="216" viewBox="0 0 390 216" fill="none" xmlns="http://www.w3.org/2000/svg">
<path d="M390 0V110.115C367.704 114.686 348.052 126.836 332.009 144.373C331.53 144.899 331.508 145.416 331.946 145.923C331.957 145.938 331.965 145.948 331.969 145.952C332.371 146.496 332.828 146.555 333.34 146.129C344.441 136.899 357.183 128.517 370.285 122.983C376.656 120.292 383.228 118.561 390 117.794V124.991C388.499 125.379 386.991 125.782 385.478 126.2C360.579 133.044 339.435 146.758 322.044 167.341C321.446 168.049 321.477 168.645 322.134 169.128C322.142 169.134 322.15 169.14 322.157 169.146C322.509 169.561 322.915 169.547 323.375 169.107C334.445 158.46 346.133 149.528 359.399 142.426C369.271 137.139 379.472 133.772 390 132.327V139.68C388.338 139.89 386.674 140.12 385.011 140.37C379.017 141.277 373.325 142.897 367.931 145.232C354.594 151.004 342.93 159.509 331.746 169.881C326.841 174.431 320.015 181.045 311.267 189.719C302.626 198.288 293.252 206.738 283.345 213.65C282.749 214.065 282.143 214.451 281.523 214.808C281.365 214.728 281.272 214.648 281.245 214.571C280.153 211.389 278.242 208.932 276.304 206.354C276.223 206.247 276.2 206.148 276.236 206.056L277.9 203.919C277.998 203.796 278.169 203.783 278.282 203.891C278.295 203.905 278.309 203.919 278.32 203.936C279.115 205.109 280.069 206.135 281.182 207.009C283.367 208.735 287.368 210.316 289.498 207.821C290.959 206.111 289.044 204.173 287.616 203.55C284.835 202.347 282.107 202.073 279.428 202.726C278.904 202.852 278.832 202.707 279.213 202.291L286.786 193.941C286.96 193.748 287.239 193.741 287.421 193.923C289.954 196.5 294.767 198.81 297.871 196.466C299.027 195.593 299.314 194.547 298.732 193.327C297.417 190.559 291.364 191.148 289.217 191.782C288.785 191.911 288.734 191.809 289.064 191.475L294.343 186.191C294.568 185.966 294.849 185.821 295.15 185.772C298.251 185.28 301.066 183.829 303.134 181.248C304.214 179.892 304.759 177.522 303.357 176.252C301.865 174.905 299.805 176.115 298.493 177.358C296.51 179.24 295.072 181.474 294.182 184.059C294.089 184.328 293.94 184.57 293.748 184.762L288.45 190.112C288.137 190.429 288.051 190.365 288.192 189.922C289.092 187.111 289.954 180.886 287.288 179.163C285.784 178.191 284.28 180.13 283.877 181.563C282.882 185.103 284.21 189.175 286.226 191.921C286.35 192.089 286.337 192.332 286.199 192.483L279.002 200.413C278.801 200.639 278.731 200.594 278.791 200.284C279.332 197.512 279.375 192.25 277.334 189.987C276.039 188.554 274.496 189.318 273.811 190.955C272.213 194.772 274.699 199.637 277.283 202.197C277.377 202.292 277.382 202.39 277.295 202.491L275.005 205.219L270.041 201.925C269.286 199.913 267.684 198.838 265.996 200.479L264.782 200.258C264.652 200.233 264.539 200.169 264.445 200.068C263.813 199.372 263.44 198.702 263.325 198.06C263.117 196.894 262.886 195.755 262.632 194.64C264.324 195.031 265.861 194.836 267.244 194.053C268.56 193.311 269.46 191.662 268.36 190.236C267.525 189.162 266.084 188.86 264.797 188.76C263.182 188.634 261.69 188.769 260.322 189.166L259.1 187.093L262.526 179.961C262.579 179.85 262.706 179.807 262.809 179.868C262.823 179.875 262.835 179.886 262.847 179.896C265.513 182.495 270.913 184.762 274.003 181.778C275.138 180.682 275.056 179.019 273.843 178.105C271.267 176.162 266.231 177.189 263.667 178.489C263.259 178.693 263.173 178.585 263.409 178.164L269.165 167.849C269.214 167.762 269.319 167.735 269.4 167.788C272.379 169.765 277.486 170.836 280.258 167.965C281.252 166.938 281.538 165.223 280.313 164.265C278.049 162.491 273.39 163.985 271.103 165.357C270.617 165.647 270.53 165.54 270.841 165.037C272.237 162.786 273.5 160.769 274.63 158.988C275.222 158.056 275.829 157.934 276.863 157.395C279.118 156.215 280.904 154.411 282.22 151.98C284.417 147.931 280.873 144.213 277.752 148.116C276.066 150.223 275.012 152.493 274.593 154.929C274.562 155.1 274.425 155.676 274.182 156.66C274.046 157.216 273.815 157.74 273.488 158.235C272.242 160.111 271.061 162.018 269.94 163.956C269.658 164.448 269.548 164.405 269.607 163.827C269.901 161.039 269.54 156.885 267.798 154.514C266.439 152.671 264.407 153.564 263.894 155.645C262.911 159.643 265.369 163.982 268.17 166.378C268.258 166.452 268.279 166.588 268.221 166.693L262.778 176.447C262.749 176.498 262.686 176.515 262.639 176.482C262.609 176.461 262.59 176.426 262.592 176.386C262.563 173.885 262.043 171.533 261.033 169.331C260.339 167.819 259.165 165.967 257.638 166.218C255.242 166.615 255.496 170.484 256.209 172.262C257.303 174.996 259.054 177.075 261.464 178.496C261.577 178.563 261.619 178.717 261.558 178.841L258.124 185.659L255.935 183.527C255.551 182.183 255.032 181.033 254.376 180.077C253.124 178.238 251.278 177.634 249.999 179.901C245.272 178.148 240.734 177.548 235.825 178.631C234.326 178.958 232.833 179.326 231.345 179.732C230.966 179.834 230.572 179.643 230.382 179.265C230.196 178.899 229.698 177.89 228.886 176.235C227.194 172.786 224.761 169.97 221.587 167.785C219.662 166.461 217.844 165.512 216.128 164.936C210.431 163.027 203.969 162.531 198.79 165.324C196.652 166.475 194.734 167.937 193.034 169.706C190.771 172.054 188.825 175.418 187.313 178.475C187.172 178.763 186.848 178.871 186.588 178.717C186.527 178.68 186.473 178.631 186.428 178.57C184.982 176.613 183.225 174.747 181.154 172.97C180.594 172.487 180.022 172.046 179.435 171.645C175.415 168.851 170.881 167.476 165.831 167.523C156.367 167.609 148.266 172.669 144.514 182.297C143.857 183.986 143.362 185.185 143.034 185.893C142.925 186.129 142.712 186.283 142.474 186.299C141.573 186.357 140.65 186.489 139.705 186.696C139.411 186.76 139.14 186.673 138.891 186.437C139.279 185.463 139.603 184.586 139.863 183.804C140.391 182.211 140.391 179.63 138.903 178.696C137.364 177.737 135.907 179.395 135.164 180.871C134.078 183.024 133.452 185.342 133.284 187.822L132.861 187.879L128.484 178.924C128.403 178.755 128.461 178.545 128.613 178.453C131.369 176.804 133.241 174.31 134.228 170.971C134.252 170.888 134.33 170.839 134.408 170.859L137.512 171.671C137.86 171.763 138.132 172.063 138.214 172.447L139.208 177.11C139.3 177.534 139.391 177.534 139.482 177.11L140.485 172.452C140.56 172.106 140.754 171.884 141.064 171.786L144.169 170.819C144.665 170.663 144.663 170.51 144.165 170.361L140.997 169.406C140.751 169.332 140.562 169.115 140.504 168.84L139.501 164.148C139.402 163.678 139.301 163.678 139.2 164.148L138.271 168.457C138.155 169.003 137.849 169.356 137.359 169.515L134.783 170.336C134.312 170.488 134.144 170.304 134.277 169.783C134.452 169.107 134.281 168.276 133.764 167.292C132.475 164.822 130.154 166.933 129.354 168.526C128.055 171.111 127.421 173.717 127.451 176.346C127.457 176.691 127.378 176.716 127.212 176.42L121.902 166.879C121.785 166.667 121.828 166.391 122.005 166.231C124.792 163.727 127.478 158.943 125.827 154.963C125.157 153.344 123.551 153.046 122.377 154.32C120.451 156.401 120.097 161.129 120.431 163.78C120.509 164.407 120.39 164.456 120.075 163.927C118.983 162.104 117.778 160.161 116.457 158.099C116.083 157.518 115.853 156.946 115.767 156.384C115.262 153.138 113.32 147.633 110.122 146.606C108.399 146.053 107.103 147.508 107.138 149.378C107.197 152.53 110.126 155.535 112.417 156.99C112.83 157.256 113.59 157.659 114.7 158.2C114.887 158.293 115.048 158.441 115.167 158.626L119.216 165.154C119.432 165.508 119.372 165.583 119.032 165.382C116.586 163.946 114.059 163.338 111.451 163.559C109.646 163.71 108.056 165.333 109.329 167.397C111.565 171.028 117.454 169.764 120.339 167.902C120.558 167.76 120.842 167.839 120.978 168.079L126.707 178.385C126.882 178.696 126.82 178.77 126.523 178.61C123.836 177.147 120.951 176.724 117.865 177.336C116.064 177.694 114.047 179.619 115.884 181.654C118.802 184.878 124.515 182.418 127.134 179.948C127.231 179.859 127.374 179.873 127.453 179.978C127.464 179.991 127.472 180.006 127.48 180.022L131.717 188.76C131.391 189.186 131.075 189.418 130.77 189.455C128.423 188.655 126.106 188.497 123.819 188.981C122.937 189.166 121.838 189.681 121.431 190.549C120.287 192.967 123.017 194.491 124.739 194.806C124.742 194.889 124.762 194.974 124.799 195.057C124.854 195.183 124.851 195.309 124.79 195.432L122.789 199.554C121.294 199.729 120.275 200.781 119.735 202.71C119.03 205.223 118.913 207.763 119.387 210.33C119.473 210.796 119.374 210.85 119.092 210.49L112.851 202.546C112.741 202.406 112.752 202.196 112.874 202.072C115.489 199.378 117.752 194.658 116.152 190.838C115.404 189.055 113.489 188.589 112.35 190.355C110.682 192.945 110.635 197.324 111.222 200.241C111.292 200.584 111.215 200.631 110.991 200.384L103.802 192.458C103.687 192.33 103.676 192.124 103.78 191.979C105.91 188.974 107.358 184.445 105.828 180.836C105.044 178.997 103.059 178.016 101.821 180.059C100.309 182.546 100.964 187.373 101.833 189.95C101.997 190.442 101.907 190.507 101.563 190.144C99.6053 188.092 98.0342 186.511 96.8489 185.4C96.3274 184.911 95.9457 184.349 95.7052 183.716C94.5266 180.616 92.6316 177.927 90.0701 176.264C88.026 174.94 85.2454 175.989 85.8797 179.044C86.588 182.464 90.7394 184.82 93.5468 185.481C94.6233 185.736 95.2657 185.779 96.0062 186.53C97.4684 188.006 99.1147 189.67 100.948 191.521C101.256 191.832 101.209 191.926 100.807 191.801C98.4024 191.065 95.9646 191.028 93.4917 191.693C92.2741 192.02 90.6883 193.216 90.9934 194.797C91.3226 196.481 93.4326 197.41 94.7873 197.405C97.7842 197.39 100.42 196.198 102.694 193.827C102.831 193.684 103.161 193.816 103.438 194.125L111.011 202.603C111.236 202.857 111.194 202.935 110.886 202.841C107.917 201.925 102.84 202.374 100.71 204.779C99.7074 205.909 99.7706 207.387 100.968 208.285C103.031 209.826 106 208.966 108.032 207.599C109.472 206.625 110.679 205.416 111.65 203.968C111.754 203.811 111.956 203.777 112.098 203.893C112.117 203.909 112.135 203.927 112.151 203.946L118.537 212.071C118.767 212.361 118.708 212.478 118.361 212.42C115.302 211.92 110.526 212.287 108.392 215.27C108.334 215.354 108.228 215.377 108.145 215.322C93.52 205.677 80.754 192.76 67.8912 180.019C48.4997 160.813 26.9283 142.423 0 139.784V132.388C5.73051 133.064 11.3374 134.381 16.822 136.338C23.3588 138.675 29.5476 141.569 35.3897 145.02C46.3924 151.523 56.7769 159.52 66.5433 169.012C66.9653 169.424 67.6036 169.463 68.1063 169.107C68.156 169.073 68.2366 168.854 68.3495 168.451C68.4463 168.114 68.3858 167.815 68.1694 167.553C49.9955 145.85 26.22 130.955 0 125.001V117.894C5.16337 118.468 10.2125 119.659 15.1461 121.468C29.9239 126.89 43.5581 135.772 56.1856 146.138C56.4705 146.375 56.8495 146.418 57.1721 146.25C57.4126 146.126 57.547 146.037 57.5752 145.982C57.9166 145.386 57.8857 144.865 57.4812 144.419C41.6121 126.966 21.9705 114.774 0 110.236V0H390ZM163.484 144.702C158.479 140.686 153.248 146.338 157.085 151.886C159.846 155.879 164.701 156.522 169.055 155.918C169.094 155.912 169.308 155.9 169.698 155.883C170.035 155.872 170.253 155.729 170.352 155.457C171.871 151.174 174.226 141.823 170.164 138.481C169.143 137.639 167.686 137.475 166.487 137.847C163.907 138.65 162.943 141.793 163.774 144.466C163.904 144.887 163.807 144.966 163.484 144.703V144.702ZM188.339 146.295C188.339 146.35 188.358 146.382 188.395 146.394C189.872 146.855 191.432 147.339 193.074 147.849C193.273 147.91 193.426 148.085 193.477 148.307C193.957 150.433 194.423 152.558 194.875 154.679C194.898 154.785 194.941 154.839 195 154.839C195.059 154.839 195.101 154.785 195.121 154.679C195.573 152.557 196.039 150.433 196.519 148.307C196.57 148.085 196.723 147.911 196.922 147.849C198.564 147.339 200.122 146.855 201.597 146.394C201.636 146.382 201.656 146.348 201.656 146.29C201.656 146.232 201.636 146.203 201.597 146.191C200.123 145.73 198.564 145.246 196.922 144.736C196.723 144.675 196.57 144.5 196.519 144.278C196.039 142.152 195.573 140.027 195.121 137.906C195.098 137.799 195.055 137.746 194.996 137.746C194.937 137.746 194.895 137.799 194.875 137.906C194.423 140.028 193.957 142.152 193.477 144.278C193.426 144.5 193.273 144.674 193.074 144.736C191.432 145.246 189.873 145.73 188.395 146.191C188.358 146.203 188.339 146.237 188.339 146.295ZM229.407 145.275C229.352 140.596 224.529 140.501 223.741 144.822C223.236 147.615 224.607 150.762 226.557 152.732C226.658 152.832 226.797 152.871 226.929 152.835C229.501 152.114 235.003 150.085 234.474 146.333C234.366 145.567 233.971 144.951 233.287 144.481C232.035 143.62 230.797 143.909 229.575 145.349C229.538 145.392 229.476 145.394 229.437 145.352C229.418 145.333 229.407 145.305 229.407 145.277V145.275ZM242.251 158.474C242.251 158.566 242.283 158.62 242.349 158.638C243.349 158.92 244.117 159.141 244.651 159.299C244.88 159.364 245.053 159.566 245.102 159.818C245.54 162.103 245.81 163.245 245.912 163.245C246.014 163.245 246.286 162.103 246.726 159.818C246.775 159.566 246.948 159.366 247.177 159.299C247.712 159.143 248.48 158.924 249.483 158.643C249.549 158.625 249.581 158.571 249.581 158.483C249.581 158.394 249.549 158.336 249.483 158.318C248.483 158.037 247.716 157.816 247.181 157.657C246.952 157.592 246.779 157.39 246.73 157.139C246.29 154.854 246.02 153.711 245.92 153.711C245.821 153.711 245.545 154.852 245.102 157.134C245.053 157.386 244.88 157.586 244.651 157.653C244.117 157.811 243.349 158.031 242.349 158.314C242.283 158.331 242.251 158.385 242.251 158.474Z" fill="#0FBC91"/>
</svg>
