<svg width="30" height="28" viewBox="0 0 30 28" fill="none" xmlns="http://www.w3.org/2000/svg">
<path d="M14.7171 12.0352C15.2565 11.2602 15.4034 10.2505 15.1015 9.40029C14.5338 7.80528 12.5242 7.08437 11.2667 8.26801C11.1914 8.33875 11.0702 8.45274 11.0045 8.48473C10.813 8.36714 10.6395 8.06841 9.89741 7.87196C7.29943 7.18529 4.91547 10.5907 8.19786 13.2788C8.61914 13.6235 9.07737 13.919 9.52028 14.2047C10.9486 15.1257 10.7936 15.1779 11.0139 15.1779C11.2433 15.1779 11.1838 15.1027 13.5623 13.1828C13.9714 12.8462 14.3945 12.4979 14.7171 12.0352ZM11.0103 14.4057C10.2353 13.8118 9.35087 13.3486 8.6259 12.7557C5.44444 10.1491 8.63311 7.34525 10.3975 8.86501C10.4944 8.94927 10.6048 9.04524 10.74 9.10922C11.2969 9.37371 11.7317 8.68659 11.9682 8.56088C12.9734 8.0247 14.1111 8.63297 14.4644 9.62693C14.6951 10.2753 14.5793 11.0498 14.1625 11.6491C13.8273 12.1303 13.5375 12.3276 11.0103 14.4057Z" fill="#0FBC91"/>
<path d="M0.700397 27.7423C0.895043 27.8256 1.0194 27.8887 1.23207 27.8896L25.6326 28C25.7948 28 25.9554 27.9678 26.1051 27.9051C26.2547 27.8424 26.3904 27.7506 26.5042 27.635C26.618 27.5194 26.7077 27.3823 26.768 27.2317C26.8283 27.0811 26.858 26.92 26.8554 26.7578C26.6058 11.2033 26.6617 12.6581 26.6221 12.4648C26.6455 12.1882 26.5455 12.2801 24.3818 9.86417C24.1133 8.71342 23.7808 7.61223 22.808 6.93998C22.6814 6.84986 22.5264 6.79445 22.3597 6.77147C22.1213 6.5588 21.2472 6.19023 20.8219 6.04019C18.4902 3.58685 16.655 1.78412 15.0546 0.374745C14.5319 -0.0893401 13.7637 -0.126737 13.1847 0.286885C11.3613 1.61651 9.42926 3.15701 7.2841 4.99082C4.06885 4.91062 4.37433 4.91287 4.27025 4.94126C4.03821 4.87277 3.83951 5.0584 3.84627 5.27197C3.87375 6.19113 3.89808 6.97512 3.92467 7.94385C2.80883 8.94188 1.69891 9.94652 0.594964 10.9577C0.435913 11.0343 0.275962 11.1546 0.175034 11.2573C-0.0214136 11.4565 0.00652169 11.433 0.00652169 11.9913C0.00652169 27.4773 -0.0376341 26.4379 0.103844 26.9574C0.1872 27.2647 0.407528 27.6166 0.700397 27.7423ZM10.1074 18.0474C6.9277 20.9319 4.13733 23.5826 0.934693 26.4883L1.04643 11.907L10.1074 18.0474ZM24.6139 11.1158L25.8128 12.4193L24.7657 13.0163C24.7238 11.8327 24.6824 11.5993 24.6139 11.1158ZM25.9723 13.1065C26.1773 27.6999 26.2147 26.7461 26.1463 26.9497C22.9103 23.9607 20.5187 21.811 16.9456 18.2492L25.9723 13.1065ZM16.3365 18.5971C19.9023 22.1579 22.4678 24.4734 25.5551 27.3237C0.216035 27.2002 1.28298 27.2318 1.15863 27.1984C4.42164 24.2436 7.35439 21.4555 10.5895 18.5223C10.6197 18.494 10.6445 18.4604 10.6625 18.4232L12.4566 19.6397C12.737 19.8314 13.0658 19.94 13.4051 19.9533C13.7445 19.9665 14.0807 19.8837 14.3751 19.7145L16.3365 18.5971ZM23.7461 10.1057C24.0322 11.3664 24.0619 12.1657 24.102 13.3944L14.0408 19.127C13.8555 19.2318 13.6446 19.2829 13.4318 19.2747C13.219 19.2664 13.0127 19.199 12.836 19.0801L4.67396 13.5494C4.69469 10.8478 4.61043 8.24843 4.53203 5.60449C14.7514 5.8104 15.3141 5.85141 16.4928 6.05461C17.1065 6.1605 17.5746 6.88005 18.0275 7.57573C18.2338 7.89293 18.8552 8.88869 19.2183 8.88869C19.2981 8.88869 19.4247 8.83327 19.4688 8.79677C20.0262 8.33944 20.9097 7.78975 21.5955 7.55861C21.8104 7.48742 22.2299 7.35766 22.4191 7.49328C23.227 8.05198 23.5298 9.15002 23.7461 10.1066V10.1057ZM21.2855 6.95485C20.7683 7.14274 20.0888 7.51941 19.8243 7.70504V7.70414C19.6148 7.84382 19.417 7.9844 19.249 8.11101C18.8092 7.63431 18.3884 6.78453 17.8315 6.15734C19.0345 6.19339 20.2515 6.47679 21.2855 6.95485ZM13.5799 0.834325C13.7306 0.723813 13.9146 0.668159 14.1013 0.676601C14.288 0.685042 14.4662 0.757071 14.6063 0.880734C16.0098 2.11619 17.5967 3.65894 19.549 5.6865C18.7578 5.52384 17.9396 5.44905 17.1457 5.48644C17.1 5.48863 17.0552 5.50013 17.0141 5.52024C16.0544 5.08274 12.3021 5.11698 8.29788 5.0156C10.2015 3.40662 11.9371 2.03284 13.5799 0.834325ZM3.99766 13.0898L1.27938 11.2483C2.16474 10.4392 3.05387 9.63413 3.94674 8.83327C3.98144 10.2526 4.00306 11.661 3.99811 13.0911L3.99766 13.0898Z" fill="#0FBC91"/>
<path d="M20.3015 10.4993H16.4455C16.3559 10.4993 16.2699 10.5349 16.2066 10.5983C16.1432 10.6616 16.1076 10.7476 16.1076 10.8372C16.1076 10.9268 16.1432 11.0128 16.2066 11.0762C16.2699 11.1395 16.3559 11.1751 16.4455 11.1751H20.3024C20.392 11.1751 20.478 11.1395 20.5413 11.0762C20.6047 11.0128 20.6403 10.9268 20.6403 10.8372C20.6403 10.7476 20.6047 10.6616 20.5413 10.5983C20.478 10.5349 20.392 10.4993 20.3024 10.4993H20.3015ZM19.3179 13.5969H14.9248C14.8352 13.5969 14.7493 13.6325 14.6859 13.6959C14.6225 13.7593 14.5869 13.8452 14.5869 13.9349C14.5869 14.0245 14.6225 14.1104 14.6859 14.1738C14.7493 14.2372 14.8352 14.2728 14.9248 14.2728H19.3179C19.4075 14.2728 19.4935 14.2372 19.5568 14.1738C19.6202 14.1104 19.6558 14.0245 19.6558 13.9349C19.6558 13.8452 19.6202 13.7593 19.5568 13.6959C19.4935 13.6325 19.4075 13.5969 19.3179 13.5969ZM14.5306 16.1877H13.9674C13.8778 16.1877 13.7918 16.2233 13.7284 16.2867C13.6651 16.3501 13.6295 16.436 13.6295 16.5256C13.6295 16.6153 13.6651 16.7012 13.7284 16.7646C13.7918 16.828 13.8778 16.8636 13.9674 16.8636H14.5306C14.6202 16.8636 14.7062 16.828 14.7695 16.7646C14.8329 16.7012 14.8685 16.6153 14.8685 16.5256C14.8685 16.436 14.8329 16.3501 14.7695 16.2867C14.7062 16.2233 14.6202 16.1877 14.5306 16.1877ZM26.2233 8.32303C25.9804 8.82054 25.8351 9.35999 25.7953 9.91218C25.7921 9.95647 25.7977 10.0009 25.8118 10.0431C25.8258 10.0852 25.848 10.1241 25.8771 10.1577C25.9062 10.1912 25.9417 10.2187 25.9814 10.2385C26.0211 10.2583 26.0643 10.2702 26.1086 10.2733C26.1529 10.2765 26.1974 10.2708 26.2395 10.2568C26.2816 10.2427 26.3206 10.2205 26.3541 10.1914C26.3876 10.1623 26.4151 10.1269 26.4349 10.0872C26.4548 10.0475 26.4666 10.0042 26.4698 9.95994C26.5033 9.49452 26.6257 9.03982 26.8302 8.6204C26.8497 8.58055 26.8612 8.53725 26.864 8.49296C26.8668 8.44867 26.8608 8.40426 26.8465 8.36228C26.8321 8.32029 26.8096 8.28155 26.7803 8.24826C26.7509 8.21497 26.7153 8.18778 26.6754 8.16826C26.6356 8.14873 26.5923 8.13725 26.548 8.13446C26.5037 8.13167 26.4593 8.13763 26.4173 8.152C26.3753 8.16637 26.3366 8.18887 26.3033 8.21822C26.27 8.24756 26.2428 8.28318 26.2233 8.32303ZM28.5266 9.25706C28.1 9.72915 27.5988 10.128 27.0429 10.4375C26.9645 10.4812 26.9068 10.5541 26.8822 10.6403C26.8577 10.7266 26.8684 10.819 26.912 10.8974C26.9556 10.9757 27.0286 11.0335 27.1148 11.058C27.201 11.0826 27.2935 11.0719 27.3718 11.0282C27.9923 10.6825 28.5518 10.2373 29.0281 9.71033C29.0578 9.6774 29.0808 9.63893 29.0957 9.59712C29.1106 9.55531 29.1171 9.51098 29.1149 9.46665C29.1127 9.42232 29.1017 9.37887 29.0827 9.33877C29.0636 9.29867 29.0369 9.26271 29.004 9.23295C28.971 9.20319 28.9326 9.1802 28.8908 9.16531C28.849 9.15041 28.8046 9.1439 28.7603 9.14614C28.716 9.14837 28.6725 9.15932 28.6324 9.17835C28.5923 9.19739 28.5564 9.22413 28.5266 9.25706ZM29.1615 11.7951L27.6408 11.8514C27.5512 11.853 27.4658 11.8902 27.4036 11.9547C27.3414 12.0192 27.3073 12.1058 27.3089 12.1954C27.3106 12.2851 27.3477 12.3704 27.4122 12.4326C27.4767 12.4948 27.5633 12.5289 27.6529 12.5273C27.698 12.5273 29.2317 12.4714 29.1862 12.4705C29.2306 12.4689 29.2743 12.4585 29.3146 12.44C29.355 12.4215 29.3913 12.3952 29.4216 12.3627C29.4518 12.3301 29.4753 12.2919 29.4907 12.2503C29.5062 12.2086 29.5132 12.1644 29.5115 12.12C29.5043 11.9339 29.352 11.7775 29.1615 11.7951Z" fill="#0FBC91"/>
</svg>
