<svg width="59" height="45" viewBox="0 0 59 45" fill="none" xmlns="http://www.w3.org/2000/svg">
<path d="M50.5002 9.08106C51.0682 10.9212 50.1181 12.8875 48.3234 13.586C50.1635 13.0179 52.1298 13.9681 52.8283 15.7627C52.2603 13.9226 53.2104 11.9563 55.0051 11.2578C53.165 11.8258 51.1986 10.8757 50.5002 9.08106Z" fill="#D9D6FE"/>
<path d="M48.2763 39.7631C47.8277 40.966 46.526 41.618 45.2941 41.2569C46.497 41.7054 47.149 43.0071 46.7878 44.239C47.2364 43.0361 48.538 42.3841 49.77 42.7453C48.5671 42.2967 47.9151 40.9951 48.2763 39.7631Z" fill="#D9D6FE"/>
<path d="M7.31408 17.3245C7.46424 18.5995 6.60385 19.7739 5.3429 20.0151C6.6179 19.8649 7.79228 20.7253 8.03346 21.9863C7.88331 20.7113 8.74369 19.5369 10.0046 19.2957C8.72965 19.4459 7.55526 18.5855 7.31408 17.3245Z" fill="#D9D6FE"/>
<path d="M56.5241 25.2817C56.7203 25.8912 56.4122 26.5488 55.8183 26.7881C56.4278 26.592 57.0854 26.9001 57.3248 27.494C57.1286 26.8844 57.4367 26.2269 58.0306 25.9875C57.4211 26.1837 56.7635 25.8756 56.5241 25.2817Z" fill="#D9D6FE"/>
<path d="M5.6301 32.0678C5.82627 32.6773 5.51817 33.3349 4.92424 33.5743C5.53381 33.3781 6.19135 33.6862 6.43071 34.2801C6.23455 33.6706 6.54264 33.013 7.13657 32.7736C6.52701 32.9698 5.86946 32.6617 5.6301 32.0678Z" fill="#D9D6FE"/>
<path d="M16.9399 34.8954C17.136 35.505 16.8279 36.1625 16.234 36.4019C16.8436 36.2057 17.5011 36.5138 17.7405 37.1078C17.5443 36.4982 17.8524 35.8406 18.4463 35.6013C17.8368 35.7974 17.1792 35.4894 16.9399 34.8954Z" fill="#D9D6FE"/>
<path d="M1.10618 0.400306C1.30234 1.00987 0.994247 1.66741 0.400319 1.90678C1.00988 1.71061 1.66743 2.0187 1.90679 2.61263C1.71062 2.00307 2.01872 1.34552 2.61265 1.10616C2.00309 1.30233 1.34554 0.994234 1.10618 0.400306Z" fill="#D9D6FE"/>
<path d="M24.8567 7.18595C25.0528 7.79551 24.7447 8.45306 24.1508 8.69242C24.7604 8.49625 25.4179 8.80435 25.6573 9.39828C25.4611 8.78872 25.7692 8.13117 26.3631 7.89181C25.7536 8.08797 25.096 7.77988 24.8567 7.18595Z" fill="#D9D6FE"/>
</svg>
