<svg width="15" height="17" viewBox="0 0 15 17" fill="none" xmlns="http://www.w3.org/2000/svg">
<path d="M5.38598 14.3566C5.80258 14.2685 8.34107 14.2685 8.75766 14.3566C9.11379 14.4388 9.49891 14.631 9.49891 15.0507C9.47821 15.4502 9.24382 15.8044 8.91999 16.0293C8.50008 16.3566 8.00729 16.564 7.49214 16.6387C7.20724 16.6756 6.9273 16.6764 6.65233 16.6387C6.13635 16.564 5.64356 16.3566 5.22448 16.0285C4.89982 15.8044 4.66543 15.4502 4.64473 15.0507C4.64473 14.631 5.02985 14.4388 5.38598 14.3566ZM7.12102 0C8.85448 0 10.6252 0.822516 11.677 2.18722C12.3595 3.06597 12.6726 3.94388 12.6726 5.30858V5.66361C12.6726 6.71022 12.9492 7.3271 13.5579 8.03799C14.0192 8.56172 14.1667 9.234 14.1667 9.96335C14.1667 10.6919 13.9273 11.3834 13.4478 11.9449C12.82 12.6181 11.9346 13.0478 11.031 13.1225C9.72162 13.2341 8.41138 13.3281 7.08375 13.3281C5.75529 13.3281 4.44587 13.2719 3.13646 13.1225C2.23205 13.0478 1.34668 12.6181 0.719721 11.9449C0.240183 11.3834 0 10.6919 0 9.96335C0 9.234 0.148251 8.56172 0.60874 8.03799C1.23653 7.3271 1.49493 6.71022 1.49493 5.66361V5.30858C1.49493 3.90695 1.84444 2.99043 2.56416 2.09322C3.63422 0.784747 5.34946 0 7.04648 0H7.12102Z" fill="#344054"/>
</svg>
