<svg width="134" height="120" viewBox="0 0 134 120" fill="none" xmlns="http://www.w3.org/2000/svg">
<path d="M84.0805 52.3179C75.4896 38.3364 76.6818 2.82081 76.6818 2.82081C73.5325 1.892 70.1784 1.2374 66.719 0.78595C66.709 0.89296 66.2751 5.37067 65.2175 7.398C65.2175 7.398 64.4986 2.95039 63.2537 0.400548C52.4917 -0.558361 40.9689 0.334507 31.1725 1.70557C31.1767 1.73065 32.1874 7.87871 31.1725 11.4226C31.1725 11.4226 27.7457 3.20621 26.9431 2.34094C15.3626 4.20107 7.09276 6.49009 7.09276 6.49009C7.09276 6.49009 0 8.50237 0 19.1557C0 26.2585 2.54232 28.9806 2.54232 28.9806C5.96329 29.1712 9.39849 29.0257 12.8445 28.606C12.781 31.5312 12.7919 34.3177 12.8462 37.0138C14.7289 37.4034 17.5028 38.0471 20.877 39.042L14.8552 40.1464L18.6473 41.7248L13.0318 42.3627C13.7458 56.5256 16.0665 67.2851 18.9566 75.3953C24.7193 75.5851 27.7473 76.9996 27.7473 76.9996C24.8957 77.4502 22.3099 78.6699 20.612 79.6364C20.6897 79.8178 20.7683 79.99 20.8469 80.1689L20.8435 80.1706C20.8912 80.2784 20.9397 80.3804 20.9873 80.4874C21.137 80.8252 21.2883 81.1571 21.4396 81.4831C21.5299 81.6788 21.6202 81.871 21.7113 82.0633C21.7799 82.2071 21.8484 82.3518 21.9178 82.493C29.2497 97.7821 37.7152 102.708 45.7752 108.708L39.6614 112.005C42.9536 120 51.0078 120 51.0078 120C51.0078 120 56.3675 117.637 63.8022 114.151L61.8342 106.206L67.9028 112.212C75.9662 108.368 85.5302 103.617 93.3319 99.1866L91.9115 96.5916L93.688 97.0623L92.852 94.8151L96.0447 97.6174C102.612 93.7349 107.451 90.2279 108.214 87.9815C110.928 79.9766 92.6706 66.2994 84.0805 52.3179Z" fill="#F6E1CC"/>
<path opacity="0.5" d="M84.0805 52.3179C75.4896 38.3364 76.6818 2.82081 76.6818 2.82081C73.5325 1.892 70.1784 1.2374 66.719 0.78595C66.709 0.89296 66.2751 5.37067 65.2175 7.398C65.2175 7.398 64.4986 2.95039 63.2537 0.400548C52.4917 -0.558361 40.9689 0.334507 31.1725 1.70557C31.1767 1.73065 32.1874 7.87871 31.1725 11.4226C31.1725 11.4226 27.7457 3.20621 26.9431 2.34094C15.3626 4.20107 7.09276 6.49009 7.09276 6.49009C7.09276 6.49009 0 8.50237 0 19.1557C0 26.2585 2.54232 28.9806 2.54232 28.9806C5.96329 29.1712 9.39849 29.0257 12.8445 28.606C12.781 31.5312 12.7919 34.3177 12.8462 37.0138C14.7289 37.4034 17.5028 38.0471 20.877 39.042L14.8552 40.1464L18.6473 41.7248L13.0318 42.3627C13.7458 56.5256 16.0665 67.2851 18.9566 75.3953C24.7193 75.5851 27.7473 76.9996 27.7473 76.9996C24.8957 77.4502 22.3099 78.6699 20.612 79.6364C20.6897 79.8178 20.7683 79.99 20.8469 80.1689L20.8435 80.1706C20.8912 80.2784 20.9397 80.3804 20.9873 80.4874C21.137 80.8252 21.2883 81.1571 21.4396 81.4831C21.5299 81.6788 21.6202 81.871 21.7113 82.0633C21.7799 82.2071 21.8484 82.3518 21.9178 82.493C29.2497 97.7821 37.7152 102.708 45.7752 108.708L39.6614 112.005C42.9536 120 51.0078 120 51.0078 120C51.0078 120 56.3675 117.637 63.8022 114.151L61.8342 106.206L67.9028 112.212C75.9662 108.368 85.5302 103.617 93.3319 99.1866L91.9115 96.5916L93.688 97.0623L92.852 94.8151L96.0447 97.6174C102.612 93.7349 107.451 90.2279 108.214 87.9815C110.928 79.9766 92.6706 66.2994 84.0805 52.3179Z" fill="white"/>
<path d="M3.16938 28.6177C6.67646 26.3847 8.22895 21.8059 7.66966 18.0028C7.5267 17.0314 7.08527 15.9354 6.0344 15.6269C5.28283 15.4062 4.42173 15.6912 3.88167 16.2037C3.3416 16.7162 3.08244 17.4168 2.98128 18.1115C2.90186 18.6591 2.91691 19.241 3.20784 19.73C3.49794 20.2191 4.11994 20.5853 4.73441 20.4891L7.65962 19.9257" stroke="#2B2B2B" stroke-width="0.75" stroke-miterlimit="10" stroke-linecap="round" stroke-linejoin="round"/>
<path d="M12.837 28.7741C12.8395 28.6461 12.8428 28.5182 12.8454 28.3895C12.7902 16.3158 11.5069 7.556 7.09106 6.49008" stroke="#2B2B2B" stroke-width="0.75" stroke-miterlimit="10" stroke-linecap="round" stroke-linejoin="round"/>
<path d="M5.40649 15.5558H12.0336" stroke="#2B2B2B" stroke-width="0.75" stroke-miterlimit="10" stroke-linecap="round" stroke-linejoin="round"/>
<path d="M74.5801 18.9225C73.301 19.1131 72.4457 17.3039 71.1524 17.3407C70.4083 17.3625 69.8382 17.9928 69.1468 18.2679C67.4756 18.9325 65.4223 17.4385 63.8582 18.3264C63.3749 18.6006 63.0272 19.0671 62.5548 19.3597C60.0367 20.9189 56.8005 16.6427 54.1771 18.0162C53.4439 18.4 52.9106 19.1908 52.0921 19.3146C50.9518 19.4876 49.8867 18.2562 48.779 18.5805C48.3568 18.7043 48.0291 19.0362 47.6294 19.2218C45.6029 20.1614 43.2103 17.0222 41.295 18.1717C40.7423 18.5028 40.428 19.1181 39.944 19.542C39.0895 20.2902 37.8497 20.3479 36.7144 20.3679C32.9524 20.434 29.1903 20.4992 25.4291 20.5653C23.4427 20.5995 21.4212 20.6405 19.5352 21.2633" stroke="#2B2B2B" stroke-width="0.5" stroke-miterlimit="10" stroke-linecap="round" stroke-linejoin="round"/>
<path d="M20.3988 33.6606C23.0607 33.8805 26.4357 33.6924 27.4431 31.2186C27.5902 30.8574 27.6763 30.4595 27.9288 30.1627C28.6018 29.3727 29.9244 29.8124 30.6835 30.5205C31.4426 31.2286 32.0804 32.1875 33.0912 32.4224C35.126 32.8965 37.0798 30.1134 38.9759 30.9895C39.5435 31.2512 40.0334 31.8314 40.6521 31.7377C41.6252 31.5898 41.6771 30.0264 42.5758 29.6243C43.6467 29.1453 44.4902 30.6275 45.5261 31.1776C46.1355 31.5012 46.8612 31.4903 47.5501 31.4477C50.0088 31.2963 52.4491 30.8415 54.7975 30.0958C55.7087 29.8066 56.6108 29.473 57.5521 29.3075C58.7451 29.0976 59.9666 29.162 61.1779 29.1737C65.4491 29.213 69.7253 28.5692 73.7959 27.2743" stroke="#2B2B2B" stroke-width="0.5" stroke-miterlimit="10" stroke-linecap="round" stroke-linejoin="round"/>
<path d="M75.2247 38.2536C72.934 38.8765 70.6433 39.4993 68.3526 40.1221C67.6479 40.3136 66.8812 40.5025 66.2065 40.2241C65.7952 40.0544 65.46 39.7242 65.0336 39.5971C63.8064 39.2309 62.8224 40.6329 61.631 41.1028C60.0083 41.7423 58.083 40.5736 56.4645 41.224C55.906 41.4481 55.4512 41.8686 54.9287 42.1662C53.8661 42.7731 52.5837 42.8467 51.3623 42.7798C48.7422 42.636 46.1021 41.9154 43.5288 42.4287C41.8635 42.7606 40.3411 43.5916 38.71 44.0656C37.2202 44.4995 35.6611 44.6299 34.1144 44.7578C30.1317 45.0881 26.1489 45.4183 22.1653 45.7493" stroke="#2B2B2B" stroke-width="0.5" stroke-miterlimit="10" stroke-linecap="round" stroke-linejoin="round"/>
<path d="M25.7367 59.9089C25.5001 58.4275 27.5458 57.7946 29.0457 57.7628C31.1215 57.7194 33.1965 57.6759 35.2723 57.6333C36.4109 57.6099 37.5822 57.5789 38.6289 57.13C40.7315 56.2279 42.1134 53.7408 44.3974 53.6012C46.5986 53.4666 48.6811 55.6619 50.7503 54.8987C51.4885 54.6261 52.0469 54.015 52.73 53.6237C53.377 53.2534 54.1177 53.0887 54.8459 52.929C57.5964 52.3262 60.3461 51.7243 63.0966 51.1224C66.9539 50.278 70.8113 49.4328 74.6687 48.5876" stroke="#2B2B2B" stroke-width="0.5" stroke-miterlimit="10" stroke-linecap="round" stroke-linejoin="round"/>
<path d="M27.3001 72.2418C27.6379 73.2308 29.0733 73.2592 30.0038 72.7835C30.9343 72.3079 31.7628 71.512 32.8061 71.4501C33.3938 71.415 33.9832 71.6248 34.5659 71.5446C36.1176 71.3314 36.8415 69.2698 38.3723 68.937C39.8621 68.6127 41.5433 70.0682 42.8157 69.228C43.6785 68.6578 43.7186 67.3754 44.425 66.6204C45.2268 65.7635 46.6179 65.8471 47.7265 66.2334C48.835 66.6196 49.8959 67.2475 51.0689 67.2776C53.4682 67.3386 55.2464 64.9518 57.5914 64.4418C59.1824 64.0957 60.902 64.6491 62.442 64.1224C63.3315 63.8181 64.063 63.1836 64.8832 62.7238C65.8705 62.1703 66.9782 61.8761 68.0726 61.586C71.2302 60.7508 74.3887 59.9148 77.5463 59.0796" stroke="#2B2B2B" stroke-width="0.5" stroke-miterlimit="10" stroke-linecap="round" stroke-linejoin="round"/>
<path d="M35.7221 87.6881C35.682 86.0286 37.6617 85.0947 39.3195 85.0003C40.9773 84.9058 42.8123 85.1599 44.1433 84.1676C44.7678 83.7019 45.2084 82.9988 45.8964 82.6343C46.7207 82.1971 47.7189 82.3325 48.641 82.4747C52.0537 83.0013 55.7915 83.4018 58.7401 81.606C61.0768 80.1831 62.7513 77.4678 65.4592 77.079C66.7098 76.8993 68.121 77.2345 69.1485 76.5005C69.9561 75.9245 70.2704 74.8402 71.0621 74.2433C71.5512 73.8746 72.1682 73.7316 72.7643 73.5912C78.2937 72.2862 83.6809 70.3784 88.7999 67.9121" stroke="#2B2B2B" stroke-width="0.5" stroke-miterlimit="10" stroke-linecap="round" stroke-linejoin="round"/>
<path d="M97.6616 75.2665C98.1465 76.1845 96.8841 77.1024 95.8466 77.1058C94.8083 77.1091 93.6604 76.7613 92.8027 77.3465C91.9408 77.9351 91.8053 79.21 90.9911 79.8621C90.3983 80.337 89.5347 80.403 89.0013 80.9447C88.5081 81.4464 88.4337 82.208 88.2832 82.8952C87.4973 86.485 83.5739 89.0691 79.9648 88.3736C79.2835 88.2423 78.5913 88.0107 77.9124 88.1512C75.9879 88.5483 75.6034 91.4535 73.7583 92.1315C72.7074 92.5177 71.4517 92.0537 70.456 92.5662C69.6936 92.9583 69.3048 93.8085 68.7238 94.4389C66.8252 96.4955 63.3909 95.8492 60.9045 97.1359C59.4532 97.8874 58.3881 99.2735 56.8908 99.9281C56.0055 100.315 55.0274 100.421 54.081 100.615C51.5905 101.129 49.2405 102.307 47.3394 103.997" stroke="#2B2B2B" stroke-width="0.5" stroke-miterlimit="10" stroke-linecap="round" stroke-linejoin="round"/>
<path d="M81.8393 95.753C78.2068 92.3688 71.9057 89.7103 71.9057 89.7103C71.9057 89.7103 81.407 88.1838 87.6378 86.2768C92.9725 84.6441 97.7386 81.2106 100.976 76.6677C98.3146 78.9207 94.8585 77.5371 91.4008 77.0848C87.943 76.6325 84.6549 76.7521 84.6549 76.7521C84.6549 76.7521 88.1737 74.8702 92.7877 74.7105C97.4017 74.5509 102.284 74.6019 106.257 72.2493C109.184 70.5163 111.257 67.673 113.207 64.8849C116.132 60.704 118.974 56.4662 121.733 52.1733C117.337 52.6615 112.277 52.5628 107.864 52.2736C112.254 51.8296 116.628 50.6734 120.751 49.0976C124.873 47.5217 129.192 43.1501 130.564 40.0619C131.936 36.9737 133.881 21.7507 133.881 21.7507C133.881 21.7507 124.77 20.8996 116.189 24.9986C114.5 25.8229 113.042 38.0546 113.042 38.0546C113.042 38.0546 109.911 32.409 110.487 26.7576C108.592 27.7566 106.696 28.7556 104.801 29.7547C101.705 31.3866 98.5871 33.0335 95.8609 35.2289C93.1346 37.4243 89.0072 39.0545 87.9221 42.3827C86.4917 46.7709 89.1519 52.7116 90.0372 57.242C87.0886 54.7139 85.8513 47.1622 85.4182 42.4094C81.9137 45.4032 73.9673 54.4765 70.4636 57.4702C68.3134 59.307 66.0837 61.2524 65.0496 63.885C63.8791 66.8629 64.4334 70.2044 65.0044 73.3529C65.4768 75.9587 65.9491 78.5646 66.4215 81.1713C64.0639 77.4594 62.3977 70.8456 60.6981 66.9356C59.5394 69.0449 56.4453 72.1724 55.4881 74.3803C53.5234 78.9115 53.3713 84.1993 55.0717 88.8358C55.6996 90.5463 55.2866 96.4419 54.637 97.0965C58.996 94.6846 65.0404 96.2296 69.3868 96.6869C73.7332 97.1433 78.9057 96.1309 83.5723 97.8765C83.0398 97.2236 82.4345 96.3073 81.8393 95.753Z" fill="#B99B7C"/>
<path d="M129.215 26.6547C122.211 32.9566 115.347 39.419 108.473 45.8647C101.616 52.3287 94.779 58.8137 87.9672 65.3229C81.1695 71.8463 74.3577 78.3547 67.6219 84.94C65.9223 86.5711 64.2611 88.2389 62.5782 89.8867C60.8962 91.5345 59.2233 93.1931 57.573 94.8719C55.9219 96.5506 54.2415 98.2025 52.6138 99.903C50.9794 101.598 49.3608 103.306 47.6294 104.913L47.6236 104.919C47.5074 105.027 47.3268 105.019 47.219 104.904C47.1195 104.797 47.1178 104.634 47.2098 104.525C50.2462 100.909 53.5326 97.5203 56.7688 94.0902C58.3848 92.3713 60.0217 90.6734 61.6687 88.9855C63.3156 87.2984 64.9433 85.5896 66.607 83.9184C73.2316 77.2019 79.9924 70.6241 86.831 64.1291C93.6671 57.6316 100.607 51.2461 107.589 44.9074C114.565 38.5621 121.615 32.3028 128.648 26.0194C128.824 25.863 129.092 25.8781 129.25 26.0528C129.406 26.2283 129.39 26.4984 129.215 26.6547Z" fill="#2B2B2B"/>
<path d="M61.7581 89.7872L57.0614 71.8681" stroke="#2B2B2B" stroke-width="0.5" stroke-miterlimit="10" stroke-linecap="round" stroke-linejoin="round"/>
<path d="M84.1533 67.8201L78.6791 49.1628" stroke="#2B2B2B" stroke-width="0.5" stroke-miterlimit="10" stroke-linecap="round" stroke-linejoin="round"/>
<path d="M78.4642 73.464L72.2451 55.8174" stroke="#2B2B2B" stroke-width="0.5" stroke-miterlimit="10" stroke-linecap="round" stroke-linejoin="round"/>
<path d="M90.8573 61.438L111.641 67.0585" stroke="#2B2B2B" stroke-width="0.5" stroke-miterlimit="10" stroke-linecap="round" stroke-linejoin="round"/>
<path d="M95.8943 56.6877L114.665 62.7865" stroke="#2B2B2B" stroke-width="0.5" stroke-miterlimit="10" stroke-linecap="round" stroke-linejoin="round"/>
<path d="M104.825 48.6294L101.299 31.6474" stroke="#2B2B2B" stroke-width="0.5" stroke-miterlimit="10" stroke-linecap="round" stroke-linejoin="round"/>
<path d="M118.711 36.1385L130.181 40.8151" stroke="#2B2B2B" stroke-width="0.5" stroke-miterlimit="10" stroke-linecap="round" stroke-linejoin="round"/>
<path d="M71.1432 80.9965L90.2269 85.3212" stroke="#2B2B2B" stroke-width="0.5" stroke-miterlimit="10" stroke-linecap="round" stroke-linejoin="round"/>
</svg>
