<svg width="8" height="10" viewBox="0 0 8 10" fill="none" xmlns="http://www.w3.org/2000/svg">
<path fill-rule="evenodd" clip-rule="evenodd" d="M2.86542 6.81429C2.86542 6.57695 2.96092 6.36276 3.11626 6.20744C3.27158 6.05211 3.48577 5.95659 3.72311 5.95659C3.95949 5.95659 4.17366 6.05211 4.329 6.20744C4.48432 6.36278 4.5808 6.57697 4.5808 6.81429C4.58106 6.9913 4.52609 7.16398 4.42354 7.30826C4.34107 7.42467 4.23101 7.51882 4.10323 7.58227V7.98072C4.1033 8.03062 4.09343 8.08003 4.07422 8.12608C4.05501 8.17213 4.02682 8.21389 3.99131 8.24894C3.9228 8.31744 3.8273 8.36086 3.72309 8.36086C3.61793 8.36086 3.52339 8.31744 3.45391 8.24894C3.41872 8.21371 3.3908 8.17189 3.37177 8.12587C3.35273 8.07985 3.34295 8.03053 3.34297 7.98072V7.58227C3.21466 7.51859 3.1037 7.42405 3.0217 7.30826C2.91988 7.16367 2.86529 6.99113 2.86542 6.81429ZM5.59673 4.31646H0.875068C0.633875 4.31646 0.414873 4.41487 0.256634 4.57405C0.0984148 4.73227 0 4.95129 0 5.19249V9.12399C0 9.36519 0.0984148 9.58419 0.256634 9.74241C0.414853 9.9016 0.633875 10 0.875068 10H6.5702C6.81139 10 7.03039 9.90159 7.18863 9.74241C7.34781 9.58419 7.44622 9.36517 7.44622 9.12399V5.19249C7.44622 4.95129 7.34781 4.73227 7.18863 4.57405C7.09174 4.47627 6.97304 4.40287 6.84227 4.35986V3.11916C6.84227 2.69851 6.75738 2.29618 6.60493 1.92861C6.44718 1.54964 6.21639 1.20543 5.92571 0.915577C5.6382 0.628063 5.29474 0.395558 4.9127 0.23638C4.54511 0.0839335 4.1428 0 3.72311 0C3.30247 0 2.90016 0.0839335 2.53256 0.23638C2.15051 0.395558 1.80705 0.628082 1.51953 0.915577C1.23202 1.20307 0.999511 1.54656 0.841292 1.92861C0.687886 2.29618 0.603953 2.69851 0.603953 3.11916C0.603953 3.29088 0.673405 3.44622 0.786301 3.5591C0.899178 3.67198 1.05452 3.74145 1.22624 3.74145C1.39796 3.74145 1.55427 3.672 1.66714 3.5591C1.77906 3.44622 1.84949 3.29088 1.84949 3.11916C1.84949 2.86638 1.89967 2.62519 1.99131 2.40521C2.08669 2.17728 2.22565 1.97016 2.40037 1.79546C2.57403 1.62278 2.78049 1.48288 3.00916 1.38736C3.22912 1.29571 3.47033 1.24554 3.72309 1.24554C3.97585 1.24554 4.21706 1.29569 4.43703 1.38736C4.66568 1.48288 4.87213 1.62278 5.04581 1.79546C5.21947 1.96912 5.35937 2.17656 5.45391 2.40521C5.54827 2.6314 5.59681 2.87407 5.59671 3.11916V4.31646H5.59673Z" fill="#F9FAFB"/>
</svg>
