<svg width="11" height="13" viewBox="0 0 11 13" fill="none" xmlns="http://www.w3.org/2000/svg">
<path d="M6.5 7.33301C8.61333 7.33301 10.334 9.05366 10.334 11.167C10.3338 12.1802 9.51322 13 8.5 13H1.83398C0.82076 13 0.000175595 12.1802 0 11.167C0 9.05366 1.72065 7.33301 3.83398 7.33301H6.5ZM3.83398 8.33301C2.27398 8.33301 1 9.60699 1 11.167C1.00018 11.6268 1.37409 12 1.83398 12H8.5C8.95989 12 9.33381 11.6268 9.33398 11.167C9.33398 9.60699 8.06 8.33301 6.5 8.33301H3.83398ZM5.16699 0C6.91366 0 8.33398 1.42033 8.33398 3.16699C8.33381 4.91351 6.91355 6.33301 5.16699 6.33301C3.42043 6.33301 2.00018 4.91351 2 3.16699C2 1.42033 3.42033 8.07634e-09 5.16699 0ZM5.16699 1C3.97366 1 3 1.97366 3 3.16699C3.00018 4.36018 3.97377 5.33301 5.16699 5.33301C6.36022 5.33301 7.33381 4.36018 7.33398 3.16699C7.33398 1.97366 6.36033 1 5.16699 1Z" fill="#475467"/>
</svg>
