<svg width="13" height="13" viewBox="0 0 13 13" fill="none" xmlns="http://www.w3.org/2000/svg">
<path fill-rule="evenodd" clip-rule="evenodd" d="M9.82258 1.03674C9.92531 1.00531 10.0512 1.00006 10.5159 1.00006C10.8398 1.00006 11.0539 1.00043 11.2207 1.01368C11.38 1.02633 11.4616 1.04878 11.5214 1.07618C11.7098 1.16248 11.8966 1.36818 11.9644 1.56403C12.0162 1.7137 12.0113 1.87056 11.9527 2.4785C11.6693 5.41451 10.7295 7.62888 9.17917 9.17917C7.62888 10.7295 5.41451 11.6693 2.4785 11.9527C1.87056 12.0113 1.7137 12.0162 1.56404 11.9644C1.36818 11.8966 1.16248 11.7098 1.07618 11.5214C1.04879 11.4616 1.02634 11.38 1.01368 11.2207C1.00043 11.0539 1.00006 10.8398 1.00006 10.5159C1.00006 10.0512 1.00531 9.92531 1.03675 9.82258C1.08272 9.67234 1.16999 9.53805 1.28861 9.43502C1.36972 9.36457 1.48264 9.30864 1.9073 9.1199L2.51128 8.85147C2.97121 8.64705 3.09768 8.59762 3.21439 8.58652C3.34464 8.57413 3.47598 8.59241 3.5979 8.63988C3.70715 8.68243 3.81532 8.76451 4.20197 9.08672C4.21952 9.10134 4.23685 9.1158 4.25397 9.1301C4.56089 9.38629 4.8039 9.58914 5.10601 9.69951C5.37798 9.79886 5.71829 9.83369 6.00474 9.79148C6.32255 9.74464 6.57134 9.61145 6.88067 9.44585C6.89592 9.43769 6.91131 9.42945 6.92686 9.42114C8.11149 8.78807 8.78807 8.11149 9.42114 6.92686C9.42945 6.91131 9.43769 6.89592 9.44585 6.88067C9.61145 6.57134 9.74464 6.32255 9.79148 6.00474C9.83369 5.71829 9.79887 5.37798 9.69951 5.106C9.58914 4.80389 9.38629 4.56088 9.13009 4.25397C9.1158 4.23684 9.10134 4.21952 9.08672 4.20197C8.76451 3.81532 8.68243 3.70715 8.63988 3.5979C8.59241 3.47598 8.57413 3.34464 8.58652 3.21439C8.59762 3.09768 8.64705 2.97121 8.85147 2.51128L9.1199 1.9073C9.30864 1.48264 9.36457 1.36972 9.43502 1.28861C9.53805 1.16999 9.67234 1.08272 9.82258 1.03674ZM10.4505 3.06387e-05C10.0826 -0.000239728 9.79457 -0.000451366 9.52998 0.0805086C9.2005 0.181327 8.90598 0.372725 8.68003 0.632867C8.49859 0.841767 8.38182 1.10503 8.23261 1.44141C8.22389 1.46108 8.21506 1.48099 8.20609 1.50116L7.93765 2.10515C7.92798 2.12691 7.91841 2.1484 7.90896 2.16961C7.74675 2.5338 7.61959 2.81931 7.59101 3.1197C7.56384 3.40535 7.60392 3.69339 7.70804 3.96077C7.81754 4.24195 8.01782 4.4819 8.27329 4.78797C8.28817 4.8058 8.30324 4.82385 8.31849 4.84216C8.63835 5.22599 8.71699 5.3308 8.76022 5.44915C8.80249 5.56484 8.82012 5.7371 8.80216 5.85896C8.78342 5.9861 8.73917 6.08131 8.53917 6.45554C7.99935 7.46568 7.46568 7.99935 6.45554 8.53917C6.08131 8.73917 5.9861 8.78342 5.85895 8.80216C5.7371 8.82012 5.56484 8.80249 5.44915 8.76022C5.3308 8.71699 5.22599 8.63835 4.84216 8.31849C4.82386 8.30324 4.8058 8.28818 4.78797 8.27329C4.4819 8.01782 4.24195 7.81754 3.96077 7.70804C3.69339 7.60392 3.40535 7.56384 3.1197 7.59101C2.81931 7.61959 2.53379 7.74676 2.16959 7.90897C2.14838 7.91842 2.12691 7.92798 2.10514 7.93765L1.50116 8.20609C1.48099 8.21506 1.46108 8.22389 1.44141 8.23261C1.10503 8.38182 0.841764 8.4986 0.632866 8.68004C0.372725 8.90598 0.181329 9.2005 0.0805104 9.52998C-0.000450204 9.79457 -0.000239124 10.0826 3.17196e-05 10.4506C4.69784e-05 10.4721 6.35088e-05 10.4939 6.35088e-05 10.5159V10.5348C5.58794e-05 10.8348 4.95215e-05 11.0888 0.0168253 11.2999C0.034556 11.5231 0.0728683 11.7322 0.166998 11.9378C0.367006 12.3745 0.782989 12.7523 1.23689 12.9094C1.61789 13.0413 2.00611 13.0034 2.49333 12.9559C2.5201 12.9533 2.54717 12.9507 2.57455 12.948C5.6722 12.6491 8.12863 11.6439 9.88628 9.88628C11.6439 8.12863 12.6491 5.6722 12.948 2.57455C12.9507 2.54717 12.9533 2.5201 12.9559 2.49333C13.0034 2.00612 13.0413 1.61789 12.9094 1.23689C12.7523 0.782988 12.3745 0.367004 11.9378 0.166996C11.7322 0.0728668 11.5231 0.0345548 11.2999 0.0168236C11.0888 4.87591e-05 10.8348 5.49177e-05 10.5348 6.21497e-05L10.5159 6.24676e-05C10.4939 6.24676e-05 10.4721 4.64538e-05 10.4505 3.06387e-05Z" fill="#475467"/>
</svg>
