<svg width="16" height="16" viewBox="0 0 16 16" fill="none" xmlns="http://www.w3.org/2000/svg">
<path d="M8.00001 1.3335C4.32668 1.3335 1.33334 4.32683 1.33334 8.00016C1.33334 11.6735 4.32668 14.6668 8.00001 14.6668C11.6733 14.6668 14.6667 11.6735 14.6667 8.00016C14.6667 4.32683 11.6733 1.3335 8.00001 1.3335ZM11.1867 6.46683L7.40668 10.2468C7.31334 10.3402 7.18668 10.3935 7.05334 10.3935C6.92001 10.3935 6.79334 10.3402 6.70001 10.2468L4.81334 8.36016C4.62001 8.16683 4.62001 7.84683 4.81334 7.6535C5.00668 7.46016 5.32668 7.46016 5.52001 7.6535L7.05334 9.18683L10.48 5.76016C10.6733 5.56683 10.9933 5.56683 11.1867 5.76016C11.38 5.9535 11.38 6.26683 11.1867 6.46683Z" fill="#F95555"/>
</svg>
