<svg width="69" height="53" viewBox="0 0 69 53" fill="none" xmlns="http://www.w3.org/2000/svg">
<path d="M9.32382 10.683C8.65576 12.847 9.77323 15.1595 11.884 15.9809C9.71977 15.3129 7.40711 16.4303 6.58561 18.5409C7.25367 16.3768 6.1362 14.0643 4.02543 13.2429C6.18966 13.9109 8.50232 12.7935 9.32382 10.683Z" fill="#EFFFFB"/>
<path d="M11.9432 46.7644C12.4708 48.1791 14.0017 48.9459 15.4507 48.5211C14.0359 49.0486 13.269 50.5795 13.6938 52.0283C13.1663 50.6136 11.6353 49.8469 10.1863 50.2716C11.6011 49.7441 12.368 48.2133 11.9432 46.7644Z" fill="#EFFFFB"/>
<path d="M60.1194 20.3766C59.9428 21.8761 60.9547 23.2572 62.4378 23.5408C60.9382 23.3642 59.5569 24.3761 59.2733 25.859C59.4499 24.3596 58.4379 22.9785 56.9549 22.6948C58.4545 22.8714 59.8357 21.8596 60.1194 20.3766Z" fill="#EFFFFB"/>
<path d="M2.24241 29.731C2.01169 30.4479 2.37406 31.2212 3.0726 31.5027C2.35567 31.272 1.5823 31.6343 1.30078 32.3328C1.5315 31.6159 1.16913 30.8426 0.470591 30.5611C1.18752 30.7918 1.96089 30.4295 2.24241 29.731Z" fill="#EFFFFB"/>
<path d="M62.0979 37.7115C61.8672 38.4284 62.2295 39.2017 62.9281 39.4832C62.2111 39.2525 61.4378 39.6148 61.1562 40.3133C61.387 39.5964 61.0246 38.8231 60.3261 38.5416C61.043 38.7723 61.8164 38.41 62.0979 37.7115Z" fill="#EFFFFB"/>
<path d="M48.7951 41.0382C48.5644 41.755 48.9268 42.5283 49.6253 42.8098C48.9084 42.5791 48.135 42.9415 47.8535 43.6399C48.0842 42.9231 47.7219 42.1498 47.0233 41.8683C47.7403 42.099 48.5136 41.7366 48.7951 41.0382Z" fill="#EFFFFB"/>
<path d="M67.4177 0.470775C67.187 1.18764 67.5493 1.96095 68.2479 2.24244C67.531 2.01175 66.7576 2.37408 66.4761 3.07256C66.7068 2.35569 66.3444 1.58239 65.6459 1.30089C66.3628 1.53159 67.1362 1.16926 67.4177 0.470775Z" fill="#EFFFFB"/>
<path fill-rule="evenodd" clip-rule="evenodd" d="M38.6141 20.2549L36.9101 20.3272C36.7322 19.6786 36.4457 19.0649 36.0627 18.512L37.2185 17.2534C37.298 17.1668 37.3398 17.0522 37.3347 16.9348C37.3297 16.8173 37.2782 16.7067 37.1916 16.6273L35.8854 15.4282C35.8425 15.3888 35.7923 15.3582 35.7376 15.3382C35.683 15.3182 35.6249 15.3092 35.5667 15.3117C35.5085 15.3142 35.4514 15.3282 35.3987 15.3528C35.3459 15.3774 35.2985 15.4122 35.2592 15.4552L34.1033 16.7138C33.5198 16.3789 32.8836 16.1456 32.222 16.0238L32.1496 14.3199C32.1472 14.2618 32.1333 14.2047 32.1087 14.1519C32.0842 14.0991 32.0495 14.0517 32.0066 14.0123C31.9638 13.9729 31.9136 13.9424 31.8589 13.9224C31.8042 13.9024 31.7461 13.8934 31.688 13.8959L29.9166 13.9711C29.8584 13.9735 29.8013 13.9874 29.7485 14.012C29.6957 14.0365 29.6483 14.0712 29.6089 14.114C29.5695 14.1569 29.539 14.2071 29.519 14.2618C29.499 14.3165 29.49 14.3745 29.4925 14.4327L29.5648 16.1366C28.9162 16.3145 28.3023 16.601 27.7494 16.9839L26.4907 15.8281C26.4479 15.7887 26.3977 15.7581 26.343 15.7381C26.2883 15.7182 26.2302 15.7092 26.172 15.7117C26.1139 15.7142 26.0568 15.7281 26.004 15.7527C25.9512 15.7773 25.9038 15.8121 25.8645 15.8551L24.6654 17.1612C24.5859 17.2478 24.5441 17.3624 24.5492 17.4798C24.5542 17.5973 24.6057 17.7079 24.6923 17.7873L25.9511 18.9431C25.6162 19.5266 25.3829 20.1627 25.2611 20.8243L23.5563 20.8959C23.4981 20.8984 23.441 20.9123 23.3882 20.9368C23.3355 20.9613 23.288 20.996 23.2486 21.0389C23.2093 21.0818 23.1787 21.132 23.1587 21.1866C23.1388 21.2413 23.1298 21.2994 23.1322 21.3575L23.2074 23.1288C23.2099 23.187 23.2238 23.2441 23.2483 23.2968C23.2728 23.3496 23.3075 23.3971 23.3504 23.4364C23.3933 23.4758 23.4435 23.5064 23.4981 23.5263C23.5528 23.5463 23.6109 23.5553 23.6691 23.5528L25.3731 23.4805C25.5532 24.1392 25.8433 24.7498 26.2205 25.2957L25.0646 26.5544C24.9852 26.641 24.9434 26.7556 24.9484 26.873C24.9535 26.9904 25.005 27.101 25.0916 27.1805L26.3978 28.3795C26.5779 28.5447 26.8588 28.5334 27.024 28.3526L28.1799 27.094C28.7632 27.4287 29.3991 27.662 30.0605 27.7839L30.1328 29.4878C30.1353 29.546 30.1492 29.6031 30.1737 29.6558C30.1983 29.7086 30.233 29.7561 30.2758 29.7954C30.3187 29.8348 30.3689 29.8654 30.4236 29.8853C30.4783 29.9053 30.5363 29.9143 30.5945 29.9118L32.3659 29.8367C32.4241 29.8342 32.4812 29.8203 32.534 29.7958C32.5868 29.7713 32.6342 29.7366 32.6736 29.6937C32.713 29.6508 32.7435 29.6006 32.7635 29.546C32.7834 29.4913 32.7925 29.4332 32.79 29.3751L32.7177 27.6712C33.3663 27.4933 33.9801 27.2068 34.533 26.8238L35.7918 27.9796C35.9719 28.1448 36.2527 28.1335 36.4179 27.9527L37.6171 26.6465C37.6965 26.5599 37.7383 26.4453 37.7333 26.3279C37.7282 26.2105 37.6767 26.0999 37.5901 26.0204L36.3314 24.8646C36.6663 24.2812 36.8996 23.645 37.0214 22.9834L38.7255 22.9111C38.7836 22.9087 38.8407 22.8948 38.8935 22.8702C38.9463 22.8457 38.9937 22.811 39.0331 22.7681C39.0725 22.7253 39.103 22.6751 39.123 22.6204C39.143 22.5657 39.152 22.5077 39.1495 22.4495L39.0744 20.6782C39.0722 20.6201 39.0585 20.5631 39.0341 20.5103C39.0098 20.4575 38.9752 20.4101 38.9324 20.3707C38.8896 20.3314 38.8395 20.3009 38.7849 20.281C38.7302 20.2611 38.6722 20.2523 38.6141 20.2549ZM31.215 23.6237C30.987 23.637 30.7587 23.6048 30.5433 23.529C30.3279 23.4532 30.1297 23.3353 29.9603 23.1822C29.7909 23.0291 29.6536 22.8438 29.5565 22.6371C29.4594 22.4305 29.4044 22.2065 29.3947 21.9784C29.3849 21.7503 29.4207 21.5225 29.4998 21.3083C29.579 21.0941 29.6999 20.8978 29.8557 20.7308C30.0114 20.5638 30.1988 20.4295 30.407 20.3356C30.6152 20.2417 30.8399 20.1902 31.0682 20.184C31.52 20.1718 31.9586 20.3377 32.2892 20.6459C32.6197 20.9542 32.8158 21.38 32.8351 21.8316C32.8544 22.2832 32.6953 22.7242 32.3922 23.0595C32.0891 23.3948 31.6662 23.5975 31.215 23.6237Z" fill="#512402"/>
<path fill-rule="evenodd" clip-rule="evenodd" d="M43.6227 13.9188L42.7377 12.9793C43.0211 12.5563 43.2307 12.0883 43.3575 11.5952L44.6502 11.6334C44.6943 11.6348 44.7382 11.6274 44.7794 11.6118C44.8206 11.5961 44.8583 11.5725 44.8904 11.5423C44.9224 11.512 44.9482 11.4758 44.9663 11.4356C44.9843 11.3954 44.9943 11.352 44.9956 11.308L45.0353 9.9664C45.0366 9.92235 45.0292 9.87848 45.0136 9.83728C44.998 9.79608 44.9743 9.75837 44.9441 9.72629C44.9139 9.69423 44.8776 9.66843 44.8374 9.65037C44.7972 9.63232 44.7538 9.62237 44.7098 9.62108L43.417 9.58279C43.3198 9.08318 43.1385 8.60366 42.8809 8.16464L43.8205 7.27971C43.8852 7.21861 43.923 7.13437 43.9257 7.04545C43.9283 6.95653 43.8956 6.87019 43.8347 6.80534L42.9143 5.82894C42.8532 5.76428 42.7689 5.72647 42.68 5.72382C42.5911 5.72116 42.5047 5.75386 42.4398 5.81476L41.5002 6.69968C41.0772 6.41625 40.6092 6.2067 40.116 6.07995L40.1543 4.7873C40.1556 4.74325 40.1482 4.69938 40.1326 4.65818C40.117 4.61698 40.0933 4.57926 40.0631 4.54719C40.0329 4.51512 39.9966 4.48933 39.9564 4.47127C39.9162 4.45322 39.8729 4.44327 39.8288 4.44198L38.4878 4.40298C38.4438 4.40166 38.3999 4.40903 38.3587 4.42467C38.3175 4.44032 38.2798 4.46393 38.2477 4.49415C38.2156 4.52438 38.1898 4.56063 38.1718 4.60083C38.1537 4.64103 38.1438 4.6844 38.1425 4.72845L38.1042 6.0211C37.6045 6.11836 37.125 6.29961 36.6859 6.55716L35.8009 5.61763C35.7398 5.55297 35.6556 5.51517 35.5666 5.51251C35.4777 5.50985 35.3913 5.54255 35.3265 5.60345L34.3493 6.52383C34.2846 6.58493 34.2468 6.66917 34.2442 6.75809C34.2415 6.84701 34.2742 6.93336 34.3351 6.99821L35.2201 7.93773C34.9367 8.3607 34.7271 8.82873 34.6003 9.32185L33.3076 9.28356C33.2635 9.28224 33.2196 9.28961 33.1784 9.30525C33.1372 9.3209 33.0995 9.34451 33.0674 9.37473C33.0354 9.40496 33.0096 9.44121 32.9915 9.48141C32.9735 9.52161 32.9635 9.56498 32.9622 9.60903L32.9225 10.9506C32.9212 10.9947 32.9286 11.0385 32.9442 11.0797C32.9599 11.1209 32.9835 11.1586 33.0137 11.1907C33.0439 11.2228 33.0802 11.2486 33.1204 11.2666C33.1606 11.2847 33.204 11.2946 33.248 11.2959L34.5408 11.3342C34.6372 11.827 34.8152 12.3071 35.0769 12.7524L34.1373 13.6373C34.0726 13.6984 34.0348 13.7826 34.0321 13.8716C34.0295 13.9605 34.0622 14.0468 34.1231 14.1117L35.0435 15.0881C35.1705 15.2228 35.3832 15.2292 35.518 15.1023L36.4576 14.2173C36.8806 14.5008 37.3486 14.7103 37.8418 14.8371L37.8035 16.1297C37.8022 16.1738 37.8096 16.2176 37.8252 16.2588C37.8408 16.3 37.8645 16.3377 37.8947 16.3698C37.9249 16.4019 37.9612 16.4277 38.0014 16.4457C38.0416 16.4638 38.0849 16.4737 38.129 16.475L39.4707 16.5147C39.5147 16.5161 39.5586 16.5087 39.5998 16.493C39.641 16.4774 39.6787 16.4538 39.7108 16.4236C39.7429 16.3933 39.7687 16.3571 39.7867 16.3169C39.8048 16.2767 39.8148 16.2333 39.816 16.1893L39.8543 14.8966C40.354 14.7994 40.8335 14.6181 41.2726 14.3606L42.1576 15.3001C42.2845 15.4348 42.4973 15.4412 42.632 15.3143L43.6085 14.3939C43.7432 14.2662 43.7496 14.0535 43.6227 13.9188ZM38.0304 11.3519C37.9131 11.2274 37.8214 11.081 37.7607 10.921C37.7 10.761 37.6713 10.5907 37.6764 10.4196C37.6815 10.2486 37.7203 10.0803 37.7904 9.92421C37.8606 9.76815 37.9608 9.62744 38.0854 9.51011C38.2099 9.39278 38.3564 9.30114 38.5164 9.2404C38.6763 9.17966 38.8467 9.15103 39.0178 9.15613C39.1888 9.16124 39.3572 9.19998 39.5132 9.27014C39.6693 9.34031 39.81 9.44052 39.9274 9.56507C40.1643 9.81659 40.2917 10.152 40.2814 10.4974C40.2711 10.8428 40.124 11.1699 39.8724 11.4069C39.6209 11.6438 39.2855 11.7712 38.94 11.7609C38.5946 11.7506 38.2674 11.6035 38.0304 11.3519Z" fill="#461F01"/>
<path fill-rule="evenodd" clip-rule="evenodd" d="M55.3309 26.8122L53.2673 27.1717C52.9475 26.41 52.5006 25.7082 51.9455 25.0963L53.1525 23.3796C53.1936 23.3211 53.2227 23.2551 53.2383 23.1854C53.2539 23.1156 53.2556 23.0435 53.2433 22.9731C53.231 22.9027 53.2049 22.8354 53.1665 22.7751C53.1282 22.7148 53.0784 22.6626 53.0199 22.6216L51.2385 21.3694C51.18 21.3282 51.1139 21.2991 51.0441 21.2835C50.9743 21.2679 50.9021 21.2662 50.8316 21.2785C50.7612 21.2908 50.6938 21.3169 50.6335 21.3552C50.5731 21.3936 50.5208 21.4434 50.4797 21.502L49.2728 23.2186C48.509 22.9038 47.6973 22.7208 46.8723 22.6776L46.5128 20.6142C46.5006 20.5438 46.4745 20.4765 46.4363 20.4161C46.398 20.3558 46.3482 20.3035 46.2897 20.2625C46.2312 20.2214 46.1652 20.1922 46.0954 20.1766C46.0256 20.1611 45.9535 20.1594 45.8831 20.1717L43.738 20.5461C43.6675 20.5584 43.6002 20.5844 43.5399 20.6227C43.4795 20.661 43.4273 20.7108 43.3862 20.7692C43.3451 20.8277 43.3159 20.8937 43.3003 20.9635C43.2848 21.0332 43.2831 21.1054 43.2955 21.1758L43.655 23.2392C42.8932 23.559 42.1913 24.0059 41.5793 24.5609L39.8625 23.3541C39.804 23.313 39.7379 23.2838 39.6681 23.2682C39.5983 23.2526 39.5261 23.2509 39.4557 23.2632C39.3852 23.2755 39.3179 23.3016 39.2575 23.3399C39.1971 23.3783 39.1448 23.4281 39.1037 23.4867L37.8514 25.2679C37.8103 25.3263 37.7811 25.3923 37.7655 25.4621C37.75 25.5318 37.7483 25.604 37.7606 25.6744C37.7729 25.7448 37.799 25.812 37.8373 25.8723C37.8757 25.9327 37.9255 25.9848 37.984 26.0259L39.7008 27.2327C39.3859 27.9964 39.203 28.808 39.1598 29.633L37.0962 29.9925C37.0257 30.0047 36.9584 30.0307 36.8981 30.069C36.8377 30.1073 36.7855 30.1571 36.7444 30.2156C36.7033 30.2741 36.6741 30.3401 36.6586 30.4098C36.643 30.4796 36.6413 30.5517 36.6537 30.6221L37.0281 32.7671C37.0403 32.8375 37.0664 32.9048 37.1046 32.9652C37.1429 33.0255 37.1927 33.0777 37.2512 33.1188C37.3097 33.1599 37.3757 33.1891 37.4455 33.2046C37.5153 33.2202 37.5874 33.2219 37.6578 33.2095L39.7214 32.85C40.0412 33.6118 40.4882 34.3136 41.0432 34.9255L39.8363 36.6422C39.7952 36.7007 39.766 36.7668 39.7504 36.8366C39.7348 36.9064 39.7331 36.9786 39.7454 37.049C39.7577 37.1195 39.7838 37.1868 39.8221 37.2472C39.8605 37.3076 39.9104 37.3598 39.9689 37.4009L41.7502 38.6531C41.8088 38.6942 41.8748 38.7234 41.9446 38.739C42.0144 38.7546 42.0866 38.7563 42.1571 38.744C42.2276 38.7317 42.2949 38.7056 42.3553 38.6673C42.4157 38.6289 42.4679 38.5791 42.509 38.5205L43.716 36.8039C44.4698 37.1137 45.2789 37.3016 46.1164 37.3449L46.4759 39.4083C46.4882 39.4787 46.5142 39.546 46.5525 39.6064C46.5908 39.6667 46.6406 39.7189 46.6991 39.76C46.7576 39.8011 46.8236 39.8303 46.8933 39.8459C46.9631 39.8614 47.0352 39.8631 47.1056 39.8508L49.2508 39.4764C49.3212 39.4641 49.3885 39.4381 49.4489 39.3998C49.5092 39.3615 49.5615 39.3117 49.6026 39.2532C49.6437 39.1948 49.6728 39.1288 49.6884 39.059C49.704 38.9892 49.7056 38.9171 49.6933 38.8467L49.3338 36.7833C50.0957 36.4638 50.7976 36.0168 51.4094 35.4616L53.1262 36.6684C53.1848 36.7095 53.2508 36.7387 53.3206 36.7543C53.3904 36.7699 53.4626 36.7716 53.5331 36.7593C53.6035 36.747 53.6709 36.7209 53.7313 36.6826C53.7917 36.6442 53.8439 36.5944 53.885 36.5358L55.1373 34.7546C55.1785 34.6961 55.2076 34.63 55.2232 34.5602C55.2388 34.4904 55.2405 34.4183 55.2282 34.3478C55.2159 34.2773 55.1898 34.21 55.1515 34.1496C55.1131 34.0892 55.0633 34.037 55.0047 33.9959L53.2879 32.7891C53.5978 32.0353 53.7857 31.2263 53.829 30.3888L55.8926 30.0293C55.963 30.0171 56.0303 29.9911 56.0907 29.9528C56.151 29.9145 56.2032 29.8647 56.2443 29.8062C56.2854 29.7477 56.3146 29.6817 56.3302 29.612C56.3457 29.5422 56.3474 29.4701 56.3351 29.3997L55.9606 27.2547C55.9357 27.1126 55.8554 26.9862 55.7373 26.9032C55.6193 26.8202 55.4731 26.7875 55.3309 26.8122ZM46.8574 32.0935C46.5839 32.1411 46.3037 32.1345 46.0328 32.0739C45.7618 32.0132 45.5055 31.8999 45.2784 31.7402C44.8197 31.4177 44.5079 30.9263 44.4116 30.3739C44.3153 29.8216 44.4424 29.2537 44.7649 28.795C45.0874 28.3364 45.5789 28.0246 46.1313 27.9283C46.6837 27.832 47.2517 27.9591 47.7104 28.2816C48.169 28.6041 48.4808 29.0955 48.5771 29.6478C48.6734 30.2002 48.5463 30.7681 48.2238 31.2268C47.9013 31.6854 47.4098 31.9972 46.8574 32.0935Z" fill="#D9DCE1"/>
</svg>
