<svg width="106" height="130" viewBox="0 0 106 130" fill="none" xmlns="http://www.w3.org/2000/svg">
<g filter="url(#filter0_f_58_10104)">
<rect x="24" y="95" width="58" height="11" fill="#0FBC91"/>
</g>
<path d="M2 16C2 7.16345 9.16344 0 18 0H86C94.8366 0 102 7.16344 102 16V84C102 92.8366 94.8366 100 86 100H18C9.16345 100 2 92.8366 2 84V16Z" fill="#EAECF0"/>
<path d="M71.94 62.66C71.94 63.38 71.78 64.12 71.44 64.84C71.1 65.56 70.66 66.24 70.08 66.88C69.1 67.96 68.02 68.74 66.8 69.24C65.6 69.74 64.3 70 62.9 70C60.86 70 58.68 69.52 56.38 68.54C54.08 67.56 51.78 66.24 49.5 64.58C47.2 62.9 45.02 61.04 42.94 58.98C40.88 56.9 39.02 54.72 37.36 52.44C35.72 50.16 34.4 47.88 33.44 45.62C32.48 43.34 32 41.16 32 39.08C32 37.72 32.24 36.42 32.72 35.22C33.2 34 33.96 32.88 35.02 31.88C36.3 30.62 37.7 30 39.18 30C39.74 30 40.3 30.12 40.8 30.36C41.32 30.6 41.78 30.96 42.14 31.48L46.78 38.02C47.14 38.52 47.4 38.98 47.58 39.42C47.76 39.84 47.86 40.26 47.86 40.64C47.86 41.12 47.72 41.6 47.44 42.06C47.18 42.52 46.8 43 46.32 43.48L44.8 45.06C44.58 45.28 44.48 45.54 44.48 45.86C44.48 46.02 44.5 46.16 44.54 46.32C44.6 46.48 44.66 46.6 44.7 46.72C45.06 47.38 45.68 48.24 46.56 49.28C47.46 50.32 48.42 51.38 49.46 52.44C50.54 53.5 51.58 54.48 52.64 55.38C53.68 56.26 54.54 56.86 55.22 57.22C55.32 57.26 55.44 57.32 55.58 57.38C55.74 57.44 55.9 57.46 56.08 57.46C56.42 57.46 56.68 57.34 56.9 57.12L58.42 55.62C58.92 55.12 59.4 54.74 59.86 54.5C60.32 54.22 60.78 54.08 61.28 54.08C61.66 54.08 62.06 54.16 62.5 54.34C62.94 54.52 63.4 54.78 63.9 55.12L70.52 59.82C71.04 60.18 71.4 60.6 71.62 61.1C71.82 61.6 71.94 62.1 71.94 62.66Z" fill="#0FBC91" stroke="#0FBC91" stroke-width="2.25" stroke-miterlimit="10"/>
<defs>
<filter id="filter0_f_58_10104" x="0" y="71" width="106" height="59" filterUnits="userSpaceOnUse" color-interpolation-filters="sRGB">
<feFlood flood-opacity="0" result="BackgroundImageFix"/>
<feBlend mode="normal" in="SourceGraphic" in2="BackgroundImageFix" result="shape"/>
<feGaussianBlur stdDeviation="12" result="effect1_foregroundBlur_58_10104"/>
</filter>
</defs>
</svg>
