<svg width="28" height="28" viewBox="0 0 28 28" fill="none" xmlns="http://www.w3.org/2000/svg">
<path d="M5.34161 5.75464H15.7425C15.8526 5.75464 15.9582 5.7109 16.0361 5.63304C16.1139 5.55518 16.1577 5.44959 16.1577 5.33948C16.1577 5.22937 16.1139 5.12377 16.0361 5.04591C15.9582 4.96806 15.8526 4.92432 15.7425 4.92432H5.34161C5.23151 4.92432 5.12591 4.96806 5.04805 5.04591C4.97019 5.12377 4.92645 5.22937 4.92645 5.33948C4.92645 5.44959 4.97019 5.55518 5.04805 5.63304C5.12591 5.7109 5.23151 5.75464 5.34161 5.75464ZM5.34161 9.442H13.8529C13.963 9.442 14.0686 9.39826 14.1465 9.3204C14.2243 9.24254 14.2681 9.13694 14.2681 9.02683C14.2681 8.91673 14.2243 8.81113 14.1465 8.73327C14.0686 8.65541 13.963 8.61167 13.8529 8.61167H5.34161C5.23151 8.61167 5.12591 8.65541 5.04805 8.73327C4.97019 8.81113 4.92645 8.91673 4.92645 9.02683C4.92645 9.13694 4.97019 9.24254 5.04805 9.3204C5.12591 9.39826 5.23151 9.442 5.34161 9.442ZM5.34161 13.1291H13.0824C13.1925 13.1291 13.2981 13.0854 13.3759 13.0075C13.4538 12.9297 13.4975 12.8241 13.4975 12.714C13.4975 12.6038 13.4538 12.4982 13.3759 12.4204C13.2981 12.3425 13.1925 12.2988 13.0824 12.2988H5.34161C5.23151 12.2988 5.12591 12.3425 5.04805 12.4204C4.97019 12.4982 4.92645 12.6038 4.92645 12.714C4.92645 12.8241 4.97019 12.9297 5.04805 13.0075C5.12591 13.0854 5.23151 13.1291 5.34161 13.1291ZM10.2287 15.9866H5.34161C5.23151 15.9866 5.12591 16.0304 5.04805 16.1082C4.97019 16.1861 4.92645 16.2917 4.92645 16.4018C4.92645 16.5119 4.97019 16.6175 5.04805 16.6953C5.12591 16.7732 5.23151 16.8169 5.34161 16.8169H10.2287C10.3388 16.8169 10.4444 16.7732 10.5222 16.6953C10.6001 16.6175 10.6438 16.5119 10.6438 16.4018C10.6438 16.2917 10.6001 16.1861 10.5222 16.1082C10.4444 16.0304 10.3388 15.9866 10.2287 15.9866Z" fill="#0FBC91"/>
<path d="M27.907 3.69803C27.8718 3.6547 27.8282 3.61893 27.7788 3.59284C27.7295 3.56675 27.6754 3.55089 27.6197 3.5462C25.0877 3.33435 22.9025 3.57704 21.0839 4.2655V0.415162C21.0839 0.305055 21.0401 0.199456 20.9623 0.121598C20.8844 0.0437402 20.7788 0 20.6687 0H0.4159C0.305793 0 0.200194 0.0437402 0.122336 0.121598C0.0444783 0.199456 0.000738067 0.305055 0.000738067 0.415162C-0.000922583 31.504 0.000738067 20.2326 0.000738067 24.7793C0.00236934 25.4983 0.288905 26.1875 0.797589 26.6957C1.30627 27.2039 1.99564 27.4899 2.71471 27.4909L21.0768 27.4885C21.8158 27.4877 22.5243 27.1937 23.0469 26.6712C23.5695 26.1486 23.8635 25.44 23.8643 24.701V20.955C23.8643 20.8449 23.8205 20.7393 23.7427 20.6615C23.6648 20.5836 23.5592 20.5399 23.4491 20.5399H21.0839V14.0524C25.501 12.647 27.437 8.65009 27.9969 4.00976C28.0037 3.95442 27.9992 3.89828 27.9838 3.84471C27.9683 3.79114 27.9422 3.74125 27.907 3.69803ZM23.034 24.701C23.0334 25.2199 22.827 25.7174 22.4601 26.0843C22.0932 26.4512 21.5957 26.6576 21.0768 26.6582L4.66147 26.6603C5.15126 26.1562 5.42521 25.481 5.42513 24.7781V21.3702H23.034V24.701ZM20.2535 20.5399H5.01116C4.90061 20.5401 4.79467 20.5842 4.71661 20.6625C4.63855 20.7408 4.59474 20.8468 4.59481 20.9574V24.7793C4.58924 25.2747 4.38853 25.748 4.03621 26.0964C3.6839 26.4447 3.20841 26.6401 2.71294 26.6401C2.21746 26.6401 1.74197 26.4447 1.38966 26.0964C1.03734 25.748 0.836626 25.2747 0.831063 24.7793V0.830325H20.2535V4.62443C19.5529 4.96218 18.8996 5.39032 18.3104 5.89792C16.2938 7.64563 15.1077 10.3703 14.8676 13.7824L12.1451 15.9992C12.0597 16.0687 12.0054 16.1694 11.9942 16.2789C11.9831 16.3885 12.0158 16.498 12.0854 16.5834C12.155 16.6687 12.2556 16.723 12.3651 16.7342C12.4747 16.7454 12.5842 16.7126 12.6696 16.643L15.3926 14.4258C17.0086 14.6694 18.6552 14.6196 20.2535 14.2787V20.5399ZM16.2917 13.6932L21.4034 9.53047C21.4481 9.49693 21.4856 9.4547 21.5136 9.40633C21.5416 9.35795 21.5595 9.30443 21.5663 9.24895C21.5731 9.19348 21.5687 9.1372 21.5532 9.0835C21.5377 9.02979 21.5116 8.97976 21.4763 8.93641C21.441 8.89305 21.3974 8.85727 21.3479 8.83119C21.2985 8.80512 21.2443 8.78929 21.1886 8.78466C21.1329 8.78004 21.0769 8.7867 21.0238 8.80426C20.9708 8.82182 20.9218 8.84991 20.8799 8.88685L15.7667 13.0501C16.0988 10.2059 17.136 8.01406 18.8541 6.52612C20.7869 4.85123 23.5637 4.1177 27.1165 4.34355C26.1401 11.2507 22.1733 14.2076 16.2922 13.6932H16.2917Z" fill="#0FBC91"/>
</svg>
